<svg version="1.1" xmlns="http://www.w3.org/2000/svg" style="display: block;" viewBox="0 0 2280 2280" width="1940" height="2280" preserveAspectRatio="none">
<defs>
	<linearGradient id="Gradient1" gradientUnits="userSpaceOnUse" x1="1582.94" y1="1289.37" x2="1692.17" y2="832.644">
		<stop class="stop0" offset="0" stop-opacity="1" stop-color="rgb(233,56,169)"/>
		<stop class="stop1" offset="1" stop-opacity="1" stop-color="rgb(251,103,224)"/>
	</linearGradient>
	<linearGradient id="Gradient2" gradientUnits="userSpaceOnUse" x1="275.272" y1="1231.42" x2="433.137" y2="1180.51">
		<stop class="stop0" offset="0" stop-opacity="1" stop-color="rgb(116,108,172)"/>
		<stop class="stop1" offset="1" stop-opacity="1" stop-color="rgb(145,129,186)"/>
	</linearGradient>
	<linearGradient id="Gradient3" gradientUnits="userSpaceOnUse" x1="891.882" y1="1091.84" x2="858.214" y2="1420.36">
		<stop class="stop0" offset="0" stop-opacity="1" stop-color="rgb(99,91,154)"/>
		<stop class="stop1" offset="1" stop-opacity="1" stop-color="rgb(126,120,182)"/>
	</linearGradient>
	<linearGradient id="Gradient4" gradientUnits="userSpaceOnUse" x1="396.973" y1="1088.77" x2="515.167" y2="1376.24">
		<stop class="stop0" offset="0" stop-opacity="1" stop-color="rgb(105,90,158)"/>
		<stop class="stop1" offset="1" stop-opacity="1" stop-color="rgb(135,132,192)"/>
	</linearGradient>
	<linearGradient id="Gradient5" gradientUnits="userSpaceOnUse" x1="657.674" y1="1357.93" x2="677.06" y2="1992.56">
		<stop class="stop0" offset="0" stop-opacity="1" stop-color="rgb(133,127,186)"/>
		<stop class="stop1" offset="1" stop-opacity="1" stop-color="rgb(180,181,242)"/>
	</linearGradient>
	<linearGradient id="Gradient6" gradientUnits="userSpaceOnUse" x1="837.673" y1="848.078" x2="1737.83" y2="1175.64">
		<stop class="stop0" offset="0" stop-opacity="1" stop-color="rgb(205,47,146)"/>
		<stop class="stop1" offset="1" stop-opacity="1" stop-color="rgb(247,71,188)"/>
	</linearGradient>
	<linearGradient id="Gradient7" gradientUnits="userSpaceOnUse" x1="696.57" y1="557.691" x2="680.234" y2="1032.81">
		<stop class="stop0" offset="0" stop-opacity="1" stop-color="rgb(67,53,123)"/>
		<stop class="stop1" offset="1" stop-opacity="1" stop-color="rgb(107,98,163)"/>
	</linearGradient>
</defs>
<path transform="translate(0,0)" fill="rgb(250,249,249)" d="M 278.109 925.165 C 273.418 922.115 267.668 912.915 265.067 907.898 C 130.853 649 354.28 398.098 613.259 367.683 C 739.09 352.905 842.983 371.892 952.26 431.74 C 1040.58 480.109 1116.22 567.061 1142.41 664.119 C 1165.91 747.975 1155.57 837.701 1113.62 914.019 C 1113.12 914.923 1109.72 921.774 1109.77 921.993 C 1111.09 928.418 1120.81 975.449 1125.83 975.738 C 1139.23 976.507 1162.08 968.794 1175.78 965.878 C 1230.32 954.274 1284.19 927.125 1309.84 875.115 C 1319.98 854.56 1327.12 835.005 1338.65 813.915 C 1373.64 749.87 1433.85 699.952 1501.2 671.777 C 1618.5 623.534 1750.77 610.777 1876.59 618.956 C 1900.99 620.541 1964.76 621.475 1974.95 648.977 C 1985.54 677.534 1935.04 700.912 1924.26 721.964 C 1917.57 735.033 1943.23 744.861 1950.97 751.117 C 1980.5 771.292 2021.24 791.454 2038.6 823.529 C 2047.96 840.814 2031.49 858.012 2016.12 862.554 C 2013.31 863.384 2009.94 864.65 2008.07 866.709 L 2010.16 870.787 C 2050.86 874.613 2197.37 899.291 2220.62 927.9 C 2224.65 932.851 2226.08 940.182 2225.04 946.383 C 2222.71 960.177 2210.14 970.539 2199.15 977.978 C 2191.36 983.248 2168.81 993.549 2166.59 1001.88 C 2183.94 1034.91 2287.75 1092.8 2223.2 1132.61 C 2206.75 1142.77 2172.81 1130.98 2155.88 1125.37 C 2017.71 1079.51 1861.29 1055.41 1732.54 1140.55 C 1726.99 1144.22 1713.92 1153.23 1707.9 1155.32 C 1684.88 1170.53 1664.96 1187.21 1641 1202.17 C 1541.84 1264.11 1422.9 1288.65 1307.92 1264.03 C 1248.46 1251.31 1172.3 1222.47 1122.78 1186.59 C 1119.65 1245.72 1093.68 1286.54 1064.62 1334.11 C 1058.08 1344.81 1057.84 1381.38 1055.19 1395.09 C 1051.64 1435.58 1046.63 1482.16 1048.24 1522.55 C 1050.1 1568.94 1059.45 1621.02 1067.82 1666.67 C 1077.21 1717.42 1086.97 1768.1 1097.1 1818.7 C 1102.59 1846.45 1107.94 1875.05 1114.33 1902.56 C 1119.16 1923.37 1140.07 1939.98 1143.11 1962.86 C 1145.09 1977.7 1141.28 1991.01 1130.42 2001.54 C 1108.98 2022.33 1058.23 2020.91 1031.58 2019.94 C 1010.13 2019.15 941.98 2010.15 924.822 2000.24 C 909.697 1991.51 864.853 1943.77 849.867 1928.58 L 734.371 1811.85 C 711.462 1788.5 679.817 1754.8 656.34 1733.44 C 638.565 1730.23 619.952 1728.47 602.726 1725.05 L 601.851 1726.28 C 592.538 1739.58 577.255 1770.63 569.265 1786.09 C 547.195 1828.82 525.859 1871.92 505.267 1915.38 C 495.648 1935.8 482.552 1967.17 469.969 1985.66 C 464.137 1994.23 439.513 1999.67 428.989 2001.44 C 385.974 2008.67 257.293 2024.81 221.515 2000.74 C 213.341 1995.21 207.714 1986.64 205.884 1976.94 C 199.806 1944.52 238.731 1921.42 259.981 1904.89 C 258.779 1881.43 252.901 1847.61 250.229 1822.99 L 245.953 1781.54 C 245.658 1778.46 244.719 1765.7 244.234 1763.73 C 235.584 1672.84 231.684 1596.03 237.31 1505 C 239.529 1484.05 241.314 1464.78 245.481 1444.12 C 93.6419 1399.43 158.968 1229.39 234.275 1145.65 C 251.264 1126.76 268.008 1111.48 286.544 1094.27 C 287.567 1075.98 290.719 1067.65 296.782 1050.58 C 282.795 1027.69 272.743 1004.82 288.321 978.422 C 291.867 972.412 297.681 967.222 300.175 960.774 C 299.298 953.407 283.119 932.299 278.109 925.165 z M 1937.47 865.747 C 1934.87 865.577 1933.63 865.624 1931.23 864.558 C 1919.76 859.46 1907.94 860.229 1895.07 857.099 C 1884.4 853.106 1814.1 850.346 1798.32 849.905 C 1789.68 849.663 1772.64 850.829 1764.02 848.625 C 1708.91 852.12 1646.62 862.632 1598.1 889.81 C 1591.56 893.474 1578.43 901.743 1573.17 906.947 C 1538.03 931.014 1515.94 979.179 1491.88 1012.79 C 1478.77 1030.88 1463.43 1047.26 1446.23 1061.52 C 1440.47 1071.82 1408.52 1090.94 1396.86 1096.3 C 1392.77 1098.19 1378.54 1104.25 1376.37 1106.51 L 1377.11 1108.33 C 1381.6 1109.67 1383.12 1109.23 1387.93 1108.85 C 1446.08 1104.83 1500.11 1068.69 1539.34 1027.72 C 1554.7 1011.68 1570.33 995.229 1586.8 980.387 C 1612.35 957.001 1641.02 937.273 1671.99 921.769 C 1733.84 891.03 1801.82 873.261 1870.56 868.769 C 1892.88 867.311 1915.16 867.268 1937.47 865.747 z M 1491.82 1063.83 C 1490.07 1063.74 1461.92 1081.61 1456.32 1084.23 C 1437.59 1092.99 1417.7 1099.04 1397.26 1102.2 C 1437.49 1082.58 1481.59 1042.73 1505.51 1005.74 C 1526.66 973.044 1544.13 939.84 1575.53 915.168 C 1581.04 910.833 1588.6 905.32 1593.21 900.233 C 1598.35 898.442 1604.35 894.599 1609.34 892.004 C 1688.28 850.992 1799.12 844.15 1885.54 860.943 L 1886.43 861.79 L 1884.2 862.926 L 1883.67 860.757 L 1883.33 863.17 C 1872.52 865.147 1860.56 865.561 1849.57 866.707 C 1757.11 876.346 1657.34 910.859 1587.59 973.787 C 1553.92 1004.17 1528.63 1035.25 1491.82 1063.83 z"/>
<path transform="translate(0,0)" fill="rgb(250,249,249)" fill-opacity="0.196078" d="M 1573.17 906.947 C 1578.43 901.743 1591.56 893.474 1598.1 889.81 C 1646.62 862.632 1708.91 852.12 1764.02 848.625 C 1772.64 850.829 1789.68 849.663 1798.32 849.905 C 1814.1 850.346 1884.4 853.106 1895.07 857.099 C 1907.94 860.229 1919.76 859.46 1931.23 864.558 C 1933.63 865.624 1934.87 865.577 1937.47 865.747 C 1915.16 867.268 1892.88 867.311 1870.56 868.769 C 1801.82 873.261 1733.84 891.03 1671.99 921.769 C 1641.02 937.273 1612.35 957.001 1586.8 980.387 C 1570.33 995.229 1554.7 1011.68 1539.34 1027.72 C 1500.11 1068.69 1446.08 1104.83 1387.93 1108.85 C 1407.85 1103.49 1430.33 1097.66 1449.12 1089.77 C 1457.92 1086.07 1486.54 1071.76 1491.82 1063.83 C 1528.63 1035.25 1553.92 1004.17 1587.59 973.787 C 1657.34 910.859 1757.11 876.346 1849.57 866.707 C 1860.56 865.561 1872.52 865.147 1883.33 863.17 L 1883.67 860.757 L 1884.2 862.926 L 1886.43 861.79 L 1885.54 860.943 C 1799.12 844.15 1688.28 850.992 1609.34 892.004 C 1604.35 894.599 1598.35 898.442 1593.21 900.233 C 1582.39 906.68 1583.67 904.165 1573.17 906.947 z"/>
<path transform="translate(0,0)" fill="rgb(250,251,250)" fill-opacity="0.101961" d="M 1573.17 906.947 C 1583.67 904.165 1582.39 906.68 1593.21 900.233 C 1588.6 905.32 1581.04 910.833 1575.53 915.168 C 1544.13 939.84 1526.66 973.044 1505.51 1005.74 C 1481.59 1042.73 1437.49 1082.58 1397.26 1102.2 C 1417.7 1099.04 1437.59 1092.99 1456.32 1084.23 C 1461.92 1081.61 1490.07 1063.74 1491.82 1063.83 C 1486.54 1071.76 1457.92 1086.07 1449.12 1089.77 C 1430.33 1097.66 1407.85 1103.49 1387.93 1108.85 C 1383.12 1109.23 1381.6 1109.67 1377.11 1108.33 L 1376.37 1106.51 C 1378.54 1104.25 1392.77 1098.19 1396.86 1096.3 C 1408.52 1090.94 1440.47 1071.82 1446.23 1061.52 C 1463.43 1047.26 1478.77 1030.88 1491.88 1012.79 C 1515.94 979.179 1538.03 931.014 1573.17 906.947 z"/>
<path transform="translate(0,0)" fill="rgb(32,15,58)" d="M 278.109 925.165 C 273.418 922.115 267.668 912.915 265.067 907.898 C 130.853 649 354.28 398.098 613.259 367.683 C 739.09 352.905 842.983 371.892 952.26 431.74 C 1040.58 480.109 1116.22 567.061 1142.41 664.119 C 1165.91 747.975 1155.57 837.701 1113.62 914.019 C 1113.12 914.923 1109.72 921.774 1109.77 921.993 C 1111.09 928.418 1120.81 975.449 1125.83 975.738 C 1139.23 976.507 1162.08 968.794 1175.78 965.878 C 1230.32 954.274 1284.19 927.125 1309.84 875.115 C 1319.98 854.56 1327.12 835.005 1338.65 813.915 C 1373.64 749.87 1433.85 699.952 1501.2 671.777 C 1618.5 623.534 1750.77 610.777 1876.59 618.956 C 1900.99 620.541 1964.76 621.475 1974.95 648.977 C 1985.54 677.534 1935.04 700.912 1924.26 721.964 C 1917.57 735.033 1943.23 744.861 1950.97 751.117 C 1980.5 771.292 2021.24 791.454 2038.6 823.529 C 2047.96 840.814 2031.49 858.012 2016.12 862.554 C 2013.31 863.384 2009.94 864.65 2008.07 866.709 C 1999.93 868.499 1979.1 865.852 1969.58 865.211 C 1965.69 867.545 1964.94 867.325 1960.24 867.666 C 1953.34 866.487 1944.6 866.186 1937.47 865.747 C 1934.87 865.577 1933.63 865.624 1931.23 864.558 C 1919.76 859.46 1907.94 860.229 1895.07 857.099 C 1884.4 853.106 1814.1 850.346 1798.32 849.905 C 1789.68 849.663 1772.64 850.829 1764.02 848.625 C 1811.55 845.881 1859.23 846.95 1906.59 851.82 C 1937.78 855.129 1969.33 862.344 2000.56 862.049 C 2018.9 861.875 2036.86 846.793 2034.81 827.567 C 2033.17 812.275 2015.41 800.974 2004.45 792.12 C 1977.32 770.69 1941.98 750.426 1915.44 729.479 C 1928.47 708.774 1944.58 698.054 1960.12 680.486 C 1988.81 648.069 1959.36 629.589 1927.67 626.357 C 1805.82 613.929 1680.2 620.611 1562.27 654.895 C 1492.5 675.249 1422.84 711.991 1375.35 767.971 C 1346.79 801.72 1329.76 842.047 1310.35 880.955 C 1289.08 923.587 1250.29 949.68 1205.62 963.048 C 1186.74 968.85 1136.28 979.69 1117.35 977.565 C 1116.93 958.585 1111.43 946.414 1099.93 931.898 C 1105.2 926.376 1111.57 913.464 1115.22 906.273 C 1140.08 856.853 1152.27 802.023 1150.67 746.722 C 1148.3 647.876 1105.16 562.408 1033.29 495.734 C 843.051 319.238 511.886 322.961 330.634 511.322 C 233.436 612.333 201.274 758.28 258.879 888.332 C 264.566 901.17 272.199 912.789 278.109 925.165 z"/>
<path transform="translate(0,0)" fill="rgb(192,197,209)" d="M 1895.07 857.099 C 1909.71 857.703 1954.76 862.448 1969.58 865.211 C 1965.69 867.545 1964.94 867.325 1960.24 867.666 C 1953.34 866.487 1944.6 866.186 1937.47 865.747 C 1934.87 865.577 1933.63 865.624 1931.23 864.558 C 1919.76 859.46 1907.94 860.229 1895.07 857.099 z"/>
<path transform="translate(0,0)" fill="rgb(32,15,58)" d="M 1969.58 865.211 C 1979.1 865.852 1999.93 868.499 2008.07 866.709 L 2010.16 870.787 C 2050.86 874.613 2197.37 899.291 2220.62 927.9 C 2224.65 932.851 2226.08 940.182 2225.04 946.383 C 2222.71 960.177 2210.14 970.539 2199.15 977.978 C 2191.36 983.248 2168.81 993.549 2166.59 1001.88 C 2183.94 1034.91 2287.75 1092.8 2223.2 1132.61 C 2206.75 1142.77 2172.81 1130.98 2155.88 1125.37 C 2017.71 1079.51 1861.29 1055.41 1732.54 1140.55 C 1726.99 1144.22 1713.92 1153.23 1707.9 1155.32 C 1708.8 1154.38 1709.64 1153.5 1710.65 1152.67 C 1721 1144.16 1733.03 1136.61 1744.47 1129.62 C 1848.91 1065.91 1975.84 1073.88 2089.86 1103.23 C 2111.05 1108.68 2131.86 1115.14 2152.76 1121.6 C 2166.9 1125.97 2181.99 1131.89 2196.81 1133.21 C 2208.6 1134.26 2220.14 1131.62 2229.24 1123.66 C 2235.08 1118.55 2239.06 1111.65 2239.35 1103.78 C 2240.41 1074.76 2174.68 1022.49 2155.05 1001.33 C 2159.55 997.234 2162.45 995.024 2167.46 991.755 C 2182.34 982.062 2203.21 975.483 2214.14 961.181 C 2224.69 947.383 2216.6 926.044 2201.41 919.67 C 2170.25 906.595 2135.36 899.632 2102.45 892.15 C 1920.94 852.219 1702.97 859.237 1567.09 1003.69 C 1548.6 1023.35 1529.45 1043.9 1508.49 1060.97 C 1468.24 1093.76 1417.24 1116.71 1364.4 1110.48 C 1362.11 1110.21 1362.6 1110.15 1361.43 1108.33 C 1363.35 1105.51 1380.53 1099.4 1385.71 1097.2 C 1408.65 1087.47 1426.28 1075.9 1446.23 1061.52 C 1440.47 1071.82 1408.52 1090.94 1396.86 1096.3 C 1392.77 1098.19 1378.54 1104.25 1376.37 1106.51 L 1377.11 1108.33 C 1381.6 1109.67 1383.12 1109.23 1387.93 1108.85 C 1446.08 1104.83 1500.11 1068.69 1539.34 1027.72 C 1554.7 1011.68 1570.33 995.229 1586.8 980.387 C 1612.35 957.001 1641.02 937.273 1671.99 921.769 C 1733.84 891.03 1801.82 873.261 1870.56 868.769 C 1892.88 867.311 1915.16 867.268 1937.47 865.747 C 1944.6 866.186 1953.34 866.487 1960.24 867.666 C 1964.94 867.325 1965.69 867.545 1969.58 865.211 z"/>
<path transform="translate(0,0)" fill="rgb(102,90,114)" d="M 1969.58 865.211 C 1979.1 865.852 1999.93 868.499 2008.07 866.709 L 2010.16 870.787 C 1994.02 869.704 1976.14 869.243 1960.24 867.666 C 1964.94 867.325 1965.69 867.545 1969.58 865.211 z"/>
<path transform="translate(0,0)" fill="url(#Gradient7)" d="M 483.034 436.938 C 530.617 412.632 581.883 402.23 634.361 395.724 C 867.081 366.872 1138.82 524.711 1118.43 784.899 C 1117.57 795.866 1115.38 811.092 1111.98 821.722 C 1107.85 858.542 1079.26 907.151 1060.18 938.728 C 1109.69 966.47 1075.32 999.201 1081.26 1007.63 C 1086.27 1007.84 1088.51 1007.67 1093.54 1007.2 C 1095.87 1006.44 1138.17 1002.4 1143.46 1001.81 C 1191.89 996.436 1234.97 985.582 1277.03 959.94 C 1283.57 955.958 1293.25 947.497 1300.01 942.524 C 1308.1 934.58 1317.16 926.026 1323.5 916.609 C 1347.34 881.209 1360.61 836.67 1385.63 802.16 C 1481.02 670.564 1677.05 646.433 1826.88 646.804 C 1842.45 646.842 1927.86 648.44 1938.51 655.329 C 1939.77 657.923 1940.15 658.319 1938.99 661.176 C 1936.68 666.821 1926.55 673.375 1922.03 677.558 C 1912.41 686.466 1877.55 719.7 1880.74 732.87 C 1884.92 750.118 2001.16 815.006 2004.07 832.075 C 1997.79 842.107 1955.99 830.646 1944.61 829.248 C 1841.17 816.543 1670.5 812.773 1577.63 869.188 C 1459.32 941.06 1493.43 1045.87 1324.05 1090.55 C 1318.15 1092.27 1299.95 1097.44 1294.23 1097.5 C 1291.84 1096.59 1252.85 1096.41 1246.32 1096.05 C 1221.01 1094.69 1192.81 1098.46 1167.71 1093.62 C 1152.92 1091.03 1133.7 1091.61 1118.04 1089.3 C 1105.95 1087.52 1085.26 1082.05 1075.02 1082.41 C 1069.02 1088.77 1054.86 1100.46 1054.46 1105.37 C 1014.49 1132.73 945.06 1156.44 899.18 1174.83 C 895.172 1176.44 875.12 1184.92 872.078 1185.2 C 866.395 1184.93 864.983 1185.59 859.789 1188.35 C 850.637 1196.32 828.962 1214.82 821.736 1224.27 L 816.086 1228.59 C 811.997 1228.7 811.772 1228.29 808.569 1226.12 C 802.5 1225.65 755.305 1237.5 750.337 1239.91 C 741.842 1237.36 722.702 1225.39 711.034 1221.08 C 700.625 1218.22 690.253 1215.22 679.92 1212.09 C 623.336 1199.1 586.122 1199.12 528.987 1201.25 C 516.24 1202.84 463.838 1208.4 453.924 1205.3 C 451.623 1200.37 448.749 1199.36 443.96 1196.53 C 444.734 1196.73 422.879 1186.48 422.061 1186.1 L 422.318 1184.63 C 417.133 1183.09 402.621 1176.75 397.745 1174.2 C 370.347 1169 337.612 1136.77 320.136 1116.01 L 316.822 1110.84 C 316.849 1106.51 315.771 1102.37 316.032 1097.95 C 317.146 1079.11 323.979 1067.39 333.732 1051.83 C 306.7 1015.01 298.658 988.597 348.134 965.955 C 313.87 925.94 281.012 880.871 270.35 827.882 C 268.397 823.422 265.36 805.136 264.389 799.448 C 263.372 793.168 262.861 789.737 262.652 783.229 C 261.346 777.173 261.138 768.173 260.889 761.951 C 255.88 636.324 336.555 517.915 443.245 457.916 C 450.463 451.892 474.611 440.132 483.034 436.938 z"/>
<path transform="translate(0,0)" fill="rgb(247,89,209)" d="M 1300.01 942.524 C 1308.1 934.58 1317.16 926.026 1323.5 916.609 C 1347.34 881.209 1360.61 836.67 1385.63 802.16 C 1481.02 670.564 1677.05 646.433 1826.88 646.804 C 1842.45 646.842 1927.86 648.44 1938.51 655.329 C 1939.77 657.923 1940.15 658.319 1938.99 661.176 C 1936.68 666.821 1926.55 673.375 1922.03 677.558 C 1912.41 686.466 1877.55 719.7 1880.74 732.87 C 1884.92 750.118 2001.16 815.006 2004.07 832.075 C 1997.79 842.107 1955.99 830.646 1944.61 829.248 C 1841.17 816.543 1670.5 812.773 1577.63 869.188 C 1459.32 941.06 1493.43 1045.87 1324.05 1090.55 C 1318.15 1092.27 1299.95 1097.44 1294.23 1097.5 C 1291.84 1096.59 1252.85 1096.41 1246.32 1096.05 C 1221.01 1094.69 1192.81 1098.46 1167.71 1093.62 C 1152.92 1091.03 1133.7 1091.61 1118.04 1089.3 C 1105.95 1087.52 1085.26 1082.05 1075.02 1082.41 C 1069.02 1088.77 1054.86 1100.46 1054.46 1105.37 C 1014.49 1132.73 945.06 1156.44 899.18 1174.83 C 895.172 1176.44 875.12 1184.92 872.078 1185.2 C 866.395 1184.93 864.983 1185.59 859.789 1188.35 C 850.637 1196.32 828.962 1214.82 821.736 1224.27 L 816.086 1228.59 C 811.997 1228.7 811.772 1228.29 808.569 1226.12 C 802.5 1225.65 755.305 1237.5 750.337 1239.91 C 741.842 1237.36 722.702 1225.39 711.034 1221.08 C 700.625 1218.22 690.253 1215.22 679.92 1212.09 C 623.336 1199.1 586.122 1199.12 528.987 1201.25 C 516.24 1202.84 463.838 1208.4 453.924 1205.3 C 451.623 1200.37 448.749 1199.36 443.96 1196.53 C 444.734 1196.73 422.879 1186.48 422.061 1186.1 L 422.318 1184.63 C 417.133 1183.09 402.621 1176.75 397.745 1174.2 C 370.347 1169 337.612 1136.77 320.136 1116.01 L 316.822 1110.84 C 316.849 1106.51 315.771 1102.37 316.032 1097.95 C 317.146 1079.11 323.979 1067.39 333.732 1051.83 C 306.7 1015.01 298.658 988.597 348.134 965.955 C 355.566 974.234 393.203 1006.94 404.772 1007.72 C 407.316 1007.94 425.232 1014.41 431.026 1015.66 C 458.71 1021.5 486.69 1025.82 514.843 1028.62 C 689.439 1048.07 866.152 1025.11 1029.98 961.697 C 1037.4 958.748 1054.9 944.602 1060.18 938.728 C 1109.69 966.47 1075.32 999.201 1081.26 1007.63 C 1086.27 1007.84 1088.51 1007.67 1093.54 1007.2 C 1095.87 1006.44 1138.17 1002.4 1143.46 1001.81 C 1191.89 996.436 1234.97 985.582 1277.03 959.94 C 1283.57 955.958 1293.25 947.497 1300.01 942.524 z"/>
<path transform="translate(0,0)" fill="rgb(247,89,209)" d="M 1060.18 938.728 C 1109.69 966.47 1075.32 999.201 1081.26 1007.63 C 1086.27 1007.84 1088.51 1007.67 1093.54 1007.2 C 1091.4 1009.1 1090.41 1009.84 1087.83 1011.08 L 1087 1013.11 L 1087.77 1014.11 C 1102.73 1013.71 1134.07 1010.33 1145.59 1011.05 C 1129.35 1014.09 1110.75 1016.28 1094.18 1017.85 C 1092.6 1018 1079.8 1014.61 1077.36 1013.98 C 1076.37 1019.54 1100.81 1052.9 1085.75 1066.45 C 1084.74 1062.42 1085.42 1063.77 1086.68 1059.86 C 1089.29 1051.82 1086.97 1044.5 1084.78 1036.83 C 1083.7 1058.33 1090.83 1057.94 1069.51 1079.92 C 1068.48 1080.99 1066.81 1081.95 1065.52 1082.74 C 1065.48 1086.92 1065.55 1087.55 1062.02 1090.56 C 1057.34 1094.53 1041.55 1107.06 1036.52 1101.23 C 1038.06 1097.45 1054.8 1091.97 1062.23 1081.2 C 1052.61 1085.12 1042.6 1094.27 1033.58 1099.89 C 1024.29 1105.68 1014.8 1111.03 1004.89 1115.72 C 914.802 1155.76 819.257 1194.15 721.102 1207.96 C 710.099 1209.51 690.17 1213.06 679.92 1212.09 C 623.336 1199.1 586.122 1199.12 528.987 1201.25 C 516.24 1202.84 463.838 1208.4 453.924 1205.3 C 451.623 1200.37 448.749 1199.36 443.96 1196.53 C 444.734 1196.73 422.879 1186.48 422.061 1186.1 L 422.318 1184.63 C 417.133 1183.09 402.621 1176.75 397.745 1174.2 C 370.347 1169 337.612 1136.77 320.136 1116.01 L 316.822 1110.84 C 316.849 1106.51 315.771 1102.37 316.032 1097.95 C 317.146 1079.11 323.979 1067.39 333.732 1051.83 C 306.7 1015.01 298.658 988.597 348.134 965.955 C 355.566 974.234 393.203 1006.94 404.772 1007.72 C 407.316 1007.94 425.232 1014.41 431.026 1015.66 C 458.71 1021.5 486.69 1025.82 514.843 1028.62 C 689.439 1048.07 866.152 1025.11 1029.98 961.697 C 1037.4 958.748 1054.9 944.602 1060.18 938.728 z"/>
<path transform="translate(0,0)" fill="rgb(205,32,141)" d="M 1060.18 938.728 C 1109.69 966.47 1075.32 999.201 1081.26 1007.63 C 1086.27 1007.84 1088.51 1007.67 1093.54 1007.2 C 1091.4 1009.1 1090.41 1009.84 1087.83 1011.08 L 1087 1013.11 L 1087.77 1014.11 C 1102.73 1013.71 1134.07 1010.33 1145.59 1011.05 C 1129.35 1014.09 1110.75 1016.28 1094.18 1017.85 C 1092.6 1018 1079.8 1014.61 1077.36 1013.98 C 1076.37 1019.54 1100.81 1052.9 1085.75 1066.45 C 1084.74 1062.42 1085.42 1063.77 1086.68 1059.86 C 1089.29 1051.82 1086.97 1044.5 1084.78 1036.83 C 1083.7 1058.33 1090.83 1057.94 1069.51 1079.92 C 1068.48 1080.99 1066.81 1081.95 1065.52 1082.74 C 1065.48 1086.92 1065.55 1087.55 1062.02 1090.56 C 1057.34 1094.53 1041.55 1107.06 1036.52 1101.23 C 1038.06 1097.45 1054.8 1091.97 1062.23 1081.2 C 1080.65 1068.06 1082.43 1043.96 1071.19 1027.44 C 1069.44 1024.87 1069.67 1015.47 1066.93 1010.41 C 1067.11 1010.38 1040.17 1028.92 1035.76 1031.54 C 1006.46 1048.96 975.579 1062.75 944.174 1075.68 C 936.279 1078.92 921.383 1080.88 919.056 1085.52 C 927.109 1097.19 1023.92 1051.43 1039.93 1051.98 C 1008.81 1066.02 893.021 1102.63 861.557 1100.22 C 920.927 1081.47 978.743 1064.33 1032.72 1031.58 C 1053.12 1019.2 1071.74 1009.44 1075.82 982.45 C 1077.56 970.923 1071.65 942.969 1055.1 956.098 C 1018.53 985.111 968.955 995.372 924.796 1008.21 C 895.256 1016.7 859.659 1023.34 829.055 1029.17 C 694.152 1049.9 551.424 1052.86 417.647 1023.09 C 399.544 1017.5 372.493 1012.63 358.542 1000.11 C 354.801 994.203 359.969 980.115 349.317 978.768 C 338.755 977.431 324.874 994.492 324.49 1005.11 C 323.427 1026.82 339.248 1042.61 356.655 1053.1 C 407.648 1083.83 468.574 1099.23 527.019 1108.41 C 536.29 1109.86 574.286 1112.21 578.98 1114.17 L 578.806 1115.95 C 565.79 1121.69 480.078 1114 462.196 1111.14 C 456.125 1110.17 421.809 1102.16 413.933 1100.41 C 417.662 1099.3 415.542 1099.21 418.765 1100.08 C 460.54 1111.36 509.33 1115.59 552.57 1115.37 C 545.745 1112.53 528.694 1112.03 520.024 1110.28 C 499.594 1106.15 479.505 1101.65 459.403 1096.18 C 432.096 1088.76 407.295 1079.51 381.144 1068.88 C 372.778 1065.48 367.072 1060.13 358.927 1057.37 C 357.209 1056.79 358.236 1057.21 356.049 1056.02 L 354.919 1053.44 C 352.612 1055.67 353.287 1054.89 351.66 1057.7 C 347.749 1056.86 347.734 1055.86 344.221 1052.82 C 341.724 1055.2 342.805 1053.87 341.758 1057.7 L 343.255 1061.7 C 336.195 1070.29 328.889 1078.61 327.766 1090.11 C 330.511 1092.76 331.513 1090.85 335.674 1095.36 L 336.146 1097.07 L 333.915 1096.67 C 332.415 1093.63 332.347 1093.43 329.343 1091.85 L 326.942 1092.17 C 325.066 1094.79 324.568 1096.52 325.248 1099.81 C 331.981 1132.45 379.133 1155.28 406.153 1165.89 L 402.695 1167.57 C 394.543 1163.14 390.435 1160.22 381.072 1159.28 C 377.431 1156.17 379.309 1156.58 375.605 1156.62 C 378.128 1163.12 392.273 1168.06 397.745 1174.2 C 370.347 1169 337.612 1136.77 320.136 1116.01 L 316.822 1110.84 C 316.849 1106.51 315.771 1102.37 316.032 1097.95 C 317.146 1079.11 323.979 1067.39 333.732 1051.83 C 306.7 1015.01 298.658 988.597 348.134 965.955 C 355.566 974.234 393.203 1006.94 404.772 1007.72 C 407.316 1007.94 425.232 1014.41 431.026 1015.66 C 458.71 1021.5 486.69 1025.82 514.843 1028.62 C 689.439 1048.07 866.152 1025.11 1029.98 961.697 C 1037.4 958.748 1054.9 944.602 1060.18 938.728 z"/>
<path transform="translate(0,0)" fill="rgb(218,31,163)" d="M 397.745 1174.2 C 392.273 1168.06 378.128 1163.12 375.605 1156.62 C 379.309 1156.58 377.431 1156.17 381.072 1159.28 C 390.435 1160.22 394.543 1163.14 402.695 1167.57 L 406.153 1165.89 C 411.195 1167.64 444.714 1181.47 447.588 1183.96 L 447.32 1186.11 C 453.887 1190.04 478.901 1198.94 481.815 1201.27 C 468.752 1201.63 453.999 1195.2 443.96 1196.53 C 444.734 1196.73 422.879 1186.48 422.061 1186.1 L 422.318 1184.63 C 417.133 1183.09 402.621 1176.75 397.745 1174.2 z"/>
<path transform="translate(0,0)" fill="rgb(205,32,141)" d="M 447.588 1183.96 C 464.41 1189.68 485.479 1196.82 502.796 1200.15 C 508.407 1201.23 521.597 1200.43 528.987 1201.25 C 516.24 1202.84 463.838 1208.4 453.924 1205.3 C 451.623 1200.37 448.749 1199.36 443.96 1196.53 C 453.999 1195.2 468.752 1201.63 481.815 1201.27 C 478.901 1198.94 453.887 1190.04 447.32 1186.11 L 447.588 1183.96 z"/>
<path transform="translate(0,0)" fill="url(#Gradient6)" d="M 1932.82 787.314 C 1935.14 788.46 1976.86 818.121 1977.31 818.658 L 1976.45 820.053 C 1967.31 821.041 1950.59 817.068 1940.61 815.408 C 1925.65 812.514 1909.7 812.963 1894.83 811.096 C 1878.52 809.048 1867.26 814.639 1853 814.423 C 1820.87 813.936 1786.6 810.527 1754.68 814.279 C 1747.27 815.15 1739.27 813.956 1731.78 814.9 C 1728.92 815.169 1724.23 817.152 1720.35 817.748 L 1685.75 823.229 C 1679.12 824.343 1671.13 824.253 1664.59 825.28 C 1659.07 826.147 1653.9 829.433 1647.98 830.577 C 1608.01 838.297 1568.59 858.224 1538.7 885.894 C 1534.08 890.17 1512.73 907.371 1510.4 911.261 C 1504.82 920.568 1494.81 929.797 1489.57 937.971 C 1481.88 949.986 1473.89 965.416 1466.11 977.975 C 1456.7 993.167 1446.56 1006.71 1436.29 1021.24 C 1434.49 1020.79 1435.25 1021.28 1434.09 1019.65 C 1405.45 1050.25 1378.62 1063.14 1340.52 1079.56 C 1332 1083.22 1324.81 1083.57 1324.05 1090.55 C 1318.15 1092.27 1299.95 1097.44 1294.23 1097.5 C 1291.84 1096.59 1252.85 1096.41 1246.32 1096.05 C 1221.01 1094.69 1192.81 1098.46 1167.71 1093.62 C 1152.92 1091.03 1133.7 1091.61 1118.04 1089.3 C 1105.95 1087.52 1085.26 1082.05 1075.02 1082.41 C 1069.02 1088.77 1054.86 1100.46 1054.46 1105.37 C 1014.49 1132.73 945.06 1156.44 899.18 1174.83 C 895.172 1176.44 875.12 1184.92 872.078 1185.2 C 866.395 1184.93 864.983 1185.59 859.789 1188.35 C 850.637 1196.32 828.962 1214.82 821.736 1224.27 L 816.086 1228.59 C 811.997 1228.7 811.772 1228.29 808.569 1226.12 C 802.5 1225.65 755.305 1237.5 750.337 1239.91 C 741.842 1237.36 722.702 1225.39 711.034 1221.08 C 700.625 1218.22 690.253 1215.22 679.92 1212.09 C 690.17 1213.06 710.099 1209.51 721.102 1207.96 C 819.257 1194.15 914.802 1155.76 1004.89 1115.72 C 1014.8 1111.03 1024.29 1105.68 1033.58 1099.89 C 1042.6 1094.27 1052.61 1085.12 1062.23 1081.2 C 1054.8 1091.97 1038.06 1097.45 1036.52 1101.23 C 1041.55 1107.06 1057.34 1094.53 1062.02 1090.56 C 1065.55 1087.55 1065.48 1086.92 1065.52 1082.74 C 1066.81 1081.95 1068.48 1080.99 1069.51 1079.92 C 1090.83 1057.94 1083.7 1058.33 1084.78 1036.83 C 1086.97 1044.5 1089.29 1051.82 1086.68 1059.86 C 1085.42 1063.77 1084.74 1062.42 1085.75 1066.45 C 1100.81 1052.9 1076.37 1019.54 1077.36 1013.98 C 1079.8 1014.61 1092.6 1018 1094.18 1017.85 C 1110.75 1016.28 1129.35 1014.09 1145.59 1011.05 C 1149.14 1010.79 1152.02 1010.21 1155.35 1010.99 C 1163.68 1016.3 1197.15 1019.95 1208.84 1021.51 C 1237.94 1025.4 1265.99 1021.34 1294.15 1016.47 C 1381.52 1002.61 1426.17 938.458 1490.74 885.5 C 1615.44 783.212 1785.47 798.18 1935.51 811.066 C 1946.35 811.998 1957.22 816.13 1968.32 817.375 L 1969.17 816.676 C 1958.37 808.9 1940.55 797.959 1932.82 787.314 z"/>
<path transform="translate(0,0)" fill="rgb(93,82,148)" d="M 711.034 1221.08 C 740.484 1222.31 830.245 1200.02 859.789 1188.35 C 850.637 1196.32 828.962 1214.82 821.736 1224.27 L 816.086 1228.59 C 811.997 1228.7 811.772 1228.29 808.569 1226.12 C 802.5 1225.65 755.305 1237.5 750.337 1239.91 C 741.842 1237.36 722.702 1225.39 711.034 1221.08 z"/>
<path transform="translate(0,0)" fill="rgb(218,31,163)" d="M 1300.01 942.524 C 1308.1 934.58 1317.16 926.026 1323.5 916.609 C 1347.34 881.209 1360.61 836.67 1385.63 802.16 C 1481.02 670.564 1677.05 646.433 1826.88 646.804 C 1842.45 646.842 1927.86 648.44 1938.51 655.329 C 1939.77 657.923 1940.15 658.319 1938.99 661.176 C 1936.68 666.821 1926.55 673.375 1922.03 677.558 C 1912.41 686.466 1877.55 719.7 1880.74 732.87 C 1884.92 750.118 2001.16 815.006 2004.07 832.075 C 1997.79 842.107 1955.99 830.646 1944.61 829.248 C 1841.17 816.543 1670.5 812.773 1577.63 869.188 C 1459.32 941.06 1493.43 1045.87 1324.05 1090.55 C 1324.81 1083.57 1332 1083.22 1340.52 1079.56 C 1378.62 1063.14 1405.45 1050.25 1434.09 1019.65 C 1435.25 1021.28 1434.49 1020.79 1436.29 1021.24 C 1446.56 1006.71 1456.7 993.167 1466.11 977.975 C 1473.89 965.416 1481.88 949.986 1489.57 937.971 C 1494.81 929.797 1504.82 920.568 1510.4 911.261 C 1512.73 907.371 1534.08 890.17 1538.7 885.894 C 1568.59 858.224 1608.01 838.297 1647.98 830.577 C 1653.9 829.433 1659.07 826.147 1664.59 825.28 C 1671.13 824.253 1679.12 824.343 1685.75 823.229 L 1720.35 817.748 C 1724.23 817.152 1728.92 815.169 1731.78 814.9 C 1739.27 813.956 1747.27 815.15 1754.68 814.279 C 1786.6 810.527 1820.87 813.936 1853 814.423 C 1867.26 814.639 1878.52 809.048 1894.83 811.096 C 1909.7 812.963 1925.65 812.514 1940.61 815.408 C 1950.59 817.068 1967.31 821.041 1976.45 820.053 L 1977.31 818.658 C 1976.86 818.121 1935.14 788.46 1932.82 787.314 C 1920.1 777.409 1870.88 746.04 1868.9 732.244 C 1867.36 721.456 1879.6 708.414 1885.94 700.704 C 1897.77 686.141 1910.61 672.431 1924.37 659.675 C 1891.62 659.198 1857.45 654.315 1823.83 655.152 C 1689.71 658.49 1528.14 674.731 1425.79 771.126 C 1402.44 793.123 1396.14 805.625 1381.16 830.455 C 1369.76 849.352 1341.86 916.725 1328.94 926.884 C 1323.68 934.497 1316.65 940.275 1310.13 946.721 C 1271.17 985.244 1208.79 1005.02 1155.35 1010.99 C 1152.02 1010.21 1149.14 1010.79 1145.59 1011.05 C 1134.07 1010.33 1102.73 1013.71 1087.77 1014.11 L 1087 1013.11 L 1087.83 1011.08 C 1090.41 1009.84 1091.4 1009.1 1093.54 1007.2 C 1095.87 1006.44 1138.17 1002.4 1143.46 1001.81 C 1191.89 996.436 1234.97 985.582 1277.03 959.94 C 1283.57 955.958 1293.25 947.497 1300.01 942.524 z"/>
<path transform="translate(0,0)" fill="rgb(64,48,119)" d="M 483.034 436.938 C 530.617 412.632 581.883 402.23 634.361 395.724 C 867.081 366.872 1138.82 524.711 1118.43 784.899 C 1117.57 795.866 1115.38 811.092 1111.98 821.722 C 1111.88 816.702 1111.62 811.997 1111.34 806.984 L 1109.07 805.246 C 1109.76 804.901 1109.45 805.182 1109.79 804.214 C 1108.25 805.664 1106.91 806.51 1105.06 807.533 C 1106.27 793.989 1108.58 783.517 1109.23 769.238 C 1111.34 716.063 1099.77 663.234 1075.63 615.807 C 1069.25 612.157 1070.2 609.105 1065.57 603.875 C 1063.48 601.519 1061.01 604.711 1057.35 603.223 C 1053.81 593.196 1051.18 601.017 1049.64 599.535 C 1046.2 596.216 1043.95 590.101 1038.66 587.692 L 1037.17 588.8 C 1029.84 588.357 1030.36 586.29 1024.16 584.675 C 1022.06 587.5 1022.93 586.785 1020.17 588.764 C 1018.46 583.716 1018.42 579.619 1012.7 580.173 C 1010.88 582.531 1009.31 584.735 1007.6 587.16 C 1006.04 585.542 1006.64 585.737 1005.99 582.841 L 1003.79 581.511 C 1000.23 582.867 1001.36 582.854 997.792 582.907 C 997.197 579.991 997.718 580.956 996.045 578.664 C 992.419 580.05 990.013 580.772 986.262 581.809 L 985.217 580.602 C 985.093 577.25 985.304 576.386 984.026 573.269 C 980.163 571.518 978.945 572.809 973.679 573.736 C 973.344 571.593 973.734 572.588 972.481 570.763 C 971.699 571.79 970.905 572.807 970.101 573.815 C 967.871 571.547 966.952 570.335 964.083 568.844 C 962.541 573.275 963.837 572.433 961.025 573.895 L 959.202 572.344 L 958.907 567.246 L 957.4 566.159 L 955.872 567.275 L 955.764 572.355 L 954.643 573.22 C 947.78 566.664 948.266 573.767 939.728 574.729 C 937.857 571.635 937.003 570.345 934.802 567.495 C 931.529 569.524 935.538 572.399 932.676 575.575 C 929.306 574.651 929.657 573.656 927.053 569.922 L 925.806 570.57 C 925.807 573.336 925.816 573.377 925.129 576.051 L 923.88 575.793 C 922.988 570.551 925.925 570.014 924.426 565.961 L 922.273 565.055 C 920.232 567.496 920.459 569.23 920.139 572.477 L 920.019 573.794 L 918.341 575.094 C 914.106 573.999 909.588 570.383 905.85 567.807 L 904.558 568.498 C 905.2 571.164 905.41 572.171 905.685 574.889 C 899.862 574.976 901.494 570.768 895.617 571.072 L 892.149 570.493 C 891.407 572.582 890.633 574.659 889.828 576.724 L 888.289 576.915 C 885.706 573.645 884.152 571.477 881.076 568.701 L 879.474 568.904 C 878.064 574.434 883.955 576.141 882.105 582.003 L 879.855 582.94 C 876.918 579.267 878.406 576.987 874.313 574.158 C 869.764 576.401 866.609 578.082 862.287 580.725 C 861.632 583.702 861.648 582.668 861.919 585.677 L 860.737 586.059 C 857.621 580.997 857.733 575.744 855.091 574.358 C 846.285 576.681 848.971 584.765 842.856 588.351 C 838.518 586.644 834.813 584.213 831.071 585.156 C 829.711 588.483 828.874 590.71 827.031 593.854 C 824.637 587.576 824.436 583.567 819.843 576.831 L 817.022 577.401 L 816.423 578.961 C 818.653 582.823 818.734 582.745 822.042 585.854 C 819.484 587.018 820.572 587.06 818.215 586.856 C 816.72 589.185 817.051 588.962 814.61 590.458 C 811.03 589.681 804.857 587.298 802.658 588.046 C 801.968 590.35 802.119 591.327 800.488 593.031 C 796.454 590.024 797.023 589.357 793.1 589.439 C 790.153 593.012 790.76 593.386 792.121 598.144 C 786.006 597.729 783.578 587.067 775.097 587.437 C 773.574 590.08 773.479 590.375 772.527 593.288 C 772.274 589.823 772.76 589.875 771.065 587.375 C 768.95 589.085 768.622 589.459 766.152 590.577 C 762.404 587.96 763.566 589.679 762.509 585.269 L 761.235 585.837 C 760.245 589.381 759.727 593.646 757.221 595.569 C 756.562 594.087 757.903 590.432 757.711 587.227 L 756.445 586.555 L 756.763 585.94 L 757.703 586.782 L 757.064 585.44 C 755.437 588.325 754.784 590.847 752.392 591.898 C 750.155 589.915 751.227 590.064 749.094 590.072 C 747.865 592.606 747.932 593.305 746 594.929 C 742.277 592.093 746.686 589.942 743.388 585.732 L 741.789 586.509 C 742.014 592.384 739.448 591.57 733.893 594.194 C 732.962 591.685 733.735 592.715 731.558 591.116 L 726.918 592.428 C 727.471 590.285 727.411 591.43 726.09 588.852 C 723.221 589.247 722.795 590.9 720.261 593.771 L 718.805 593.715 C 717.576 591.28 717.044 590.249 715.513 588.008 L 713.203 588.988 C 712.999 591.796 713.149 590.457 712.777 593.009 L 710.962 593.425 L 710.634 587.822 L 709.38 586.944 C 705.755 588.478 703.944 590.945 701.205 593.825 C 697.412 593.786 699.843 590.049 695.909 587.887 L 694.028 592.108 L 686.525 592.638 C 684.219 590.804 682.258 589.733 681.339 586.788 L 678.363 587.033 L 677.547 587.685 C 672.999 591.264 672.5 591.991 667.238 591.37 C 665.273 589.421 664.712 588.748 662.433 587.23 L 660.864 588.391 L 660.927 592.407 L 659.821 593.423 C 657.413 591.638 658.045 590.426 657.352 586.373 C 655.6 586.404 654.186 588.033 652.423 589.365 C 647.359 590.272 648.261 587.202 643.43 588.064 C 643.818 589.578 644.37 590.897 645.009 592.319 L 642.447 591.236 C 640.516 587.149 640.3 584.218 635.653 584.773 L 634.723 586.122 L 637.476 588.824 L 637.383 590.525 C 633.378 593.063 633.514 592.983 628.9 594.141 L 628.415 592.962 C 630.85 590.592 631.965 588.854 633.91 586.131 C 632.625 582.94 631.477 579.967 629.936 576.877 L 628.253 577.231 L 627.488 582.161 C 624.929 582.56 624.672 582.722 622.292 583.863 L 620.671 584.657 L 615.074 577.605 L 614.098 578.317 C 612.227 587.084 615.627 578.468 614.478 586.669 L 612.806 586.044 C 610.746 583.417 606.748 580.739 603.912 578.436 L 605.682 576.086 L 604.352 575.1 L 603.018 576.467 L 601.994 576.148 L 601.2 577.014 C 601.786 581.069 602.406 585.118 603.059 589.162 L 602.369 589.5 L 595.337 580.924 L 590.963 580.622 L 589.07 576.265 L 587.564 576.104 C 584.585 580.888 580.971 587.556 574.768 586.011 C 571.287 581.356 573.142 579.868 570.549 576.257 L 568.815 576.614 C 562.732 582.897 570.931 584.142 569.437 590.254 L 567.784 590.568 L 565.019 587.511 L 562.754 587.435 L 560.773 590.571 C 560.727 586.325 560.877 587.574 564.111 583.304 C 562.504 579.525 561.305 576.035 557.171 574.992 C 554.372 577.332 549.013 580.987 545.499 581.786 C 545.472 578.752 546.224 577.156 547.175 574.311 C 539.885 574.771 538.636 580.753 536.996 586.574 L 536.552 588.192 L 534.484 587.655 C 533.982 583.621 537.375 581.816 537.952 575.583 L 536.394 574.629 L 534.654 575.707 C 532.579 579.32 532 580.302 531.505 584.417 L 530.198 583.395 L 532.03 579.383 C 530.186 576.914 531.382 577.574 528.801 576.725 C 525.075 581.53 525.455 581.293 519.833 580.72 L 518.128 584.242 L 519.143 585.895 L 518.7 586.409 C 517.078 583.401 516.574 582.486 514.481 579.638 C 511.617 579.179 512.948 579.002 510.479 580.523 C 508.608 584.31 509.411 584.116 509.941 589.154 L 508.252 589.911 C 507.495 584.381 506.556 580.994 505.071 575.589 L 503.718 574.966 C 501.061 575.85 500.324 577.374 498.505 579.618 L 500.549 581.108 L 500.195 582.489 C 496.741 582.844 497.966 583.415 495.917 581.798 L 496.898 578.251 L 495.988 577.163 C 491 577.496 486.233 581.257 482.772 581.424 C 476.894 581.708 468.712 577.319 467.116 571.478 C 469.494 571.226 468.81 571.327 471.07 570.429 L 469.567 568.766 C 465.973 567.578 464.644 566.781 460.916 567.516 C 457.771 573.304 459.788 566.488 454.064 570.55 L 454.512 573.409 C 453.814 575.227 453.134 577.051 452.47 578.882 L 451.354 578.874 L 449.277 574.906 L 447.12 575.034 L 445.739 576.819 C 445.926 578.059 446.132 579.297 446.357 580.531 L 444.108 581.159 C 442.594 575.057 448.717 570.486 445.796 567.222 L 443.082 569.574 C 440.476 568.742 439.907 568.62 437.541 567.306 L 435.244 568.083 C 434.434 570.859 434.849 572.151 435.171 575.05 L 433.442 575.983 C 428.229 574.179 428.907 573.388 429.281 567.906 L 427.916 567.178 C 425.39 569.41 422.938 571.203 421.261 574.09 C 422.47 575.615 423.714 577.112 424.993 578.58 L 424.237 579.564 L 420.076 579.069 C 416.319 573.601 422.278 571.732 413.916 569.962 C 411.171 572.187 411.583 572.347 410.031 575.762 L 407.704 576.014 C 405.154 573.582 405.395 573.009 404.679 569.553 C 400.448 569.566 398.635 572.881 395.867 576.068 L 393.736 575.747 C 390.946 571.589 391.703 571.207 387.93 569.756 L 386.53 570.399 C 387.059 572.397 387.525 574.064 388.17 576.027 L 385.912 577.047 L 383.151 574.677 C 380.509 575.508 381.324 574.995 379.423 577.14 L 382.381 580.061 L 381.562 581.684 C 377.373 579.663 380.772 576.923 375.717 574.212 C 374.438 576.572 374.252 577.1 373.398 579.658 C 370.381 580.916 368.13 580.421 364.842 580.196 L 363.134 581.726 C 363.157 584.125 363.217 584.479 363.696 586.838 L 363.103 587.924 C 361.631 583.303 362.612 581.555 360.051 579.034 C 356.437 579.712 357.562 578.758 355.917 581.146 C 356.752 584.841 356.641 584.595 359.024 587.542 C 353.113 591.689 347.507 590.731 345.921 593.715 C 346.416 597.323 347.228 598.258 345.867 600.857 C 339.96 594.901 344.909 595.482 340.872 593.668 C 337.709 596.78 338.355 595.037 337.815 598.606 L 340.83 600.682 L 339.515 601.792 L 336.765 601.528 L 335.579 599.627 C 331.078 600.479 333.386 604.028 329.21 604.382 L 327.691 602.137 L 326.001 603.294 C 328.341 608.331 327.963 602.163 329.139 608.445 C 327.778 611.432 327.968 611.31 325.461 613.384 C 321.755 613.329 318.122 610.29 315.409 607.929 C 309.578 612.321 307.708 618.517 303.218 622.375 C 298.545 628.375 292.904 644.117 290.405 651.493 C 274.735 697.745 270.046 735.189 274.696 784.151 C 277.426 809.994 282.087 828.197 290.28 852.455 C 290.738 857.015 291.547 857.503 289.926 861.025 C 281.898 860.464 280.451 838.183 270.35 827.882 C 268.397 823.422 265.36 805.136 264.389 799.448 C 263.372 793.168 262.861 789.737 262.652 783.229 C 261.346 777.173 261.138 768.173 260.889 761.951 C 255.88 636.324 336.555 517.915 443.245 457.916 C 450.463 451.892 474.611 440.132 483.034 436.938 z"/>
<path transform="translate(0,0)" fill="rgb(34,15,58)" d="M 483.034 436.938 C 530.617 412.632 581.883 402.23 634.361 395.724 C 867.081 366.872 1138.82 524.711 1118.43 784.899 C 1117.57 795.866 1115.38 811.092 1111.98 821.722 C 1111.88 816.702 1111.62 811.997 1111.34 806.984 L 1109.07 805.246 C 1109.76 804.901 1109.45 805.182 1109.79 804.214 C 1108.25 805.664 1106.91 806.51 1105.06 807.533 C 1106.27 793.989 1108.58 783.517 1109.23 769.238 C 1111.34 716.063 1099.77 663.234 1075.63 615.807 C 1060.07 578.138 1009.73 519.094 977.066 494.896 C 957.656 480.519 931.227 465.391 909.394 454.32 C 794.905 396.677 662.397 386.151 540.242 424.994 C 524.415 423.115 488.563 438.541 483.034 436.938 z"/>
<path transform="translate(0,0)" fill="rgb(32,15,58)" d="M 483.034 436.938 C 488.563 438.541 524.415 423.115 540.242 424.994 C 494.095 440.466 471.999 451.588 431.321 476.86 C 420.572 483.789 412.133 490.415 402.184 498.457 C 396.093 505.591 382.514 515.689 374.624 522.615 C 362.015 533.684 351.03 551.25 339.882 561.748 C 329.992 575.279 307.227 606.996 303.218 622.375 C 298.545 628.375 292.904 644.117 290.405 651.493 C 274.735 697.745 270.046 735.189 274.696 784.151 C 277.426 809.994 282.087 828.197 290.28 852.455 C 290.738 857.015 291.547 857.503 289.926 861.025 C 281.898 860.464 280.451 838.183 270.35 827.882 C 268.397 823.422 265.36 805.136 264.389 799.448 C 263.372 793.168 262.861 789.737 262.652 783.229 C 261.346 777.173 261.138 768.173 260.889 761.951 C 255.88 636.324 336.555 517.915 443.245 457.916 C 450.463 451.892 474.611 440.132 483.034 436.938 z"/>
<path transform="translate(0,0)" fill="rgb(34,15,58)" d="M 262.652 783.229 C 263.822 772.982 261.157 749.821 265.36 742.922 C 268.15 748.723 271.772 774.949 273.436 783.885 L 274.696 784.151 C 277.426 809.994 282.087 828.197 290.28 852.455 C 290.738 857.015 291.547 857.503 289.926 861.025 C 281.898 860.464 280.451 838.183 270.35 827.882 C 268.397 823.422 265.36 805.136 264.389 799.448 C 263.372 793.168 262.861 789.737 262.652 783.229 z"/>
<path transform="translate(0,0)" fill="rgb(27,14,84)" d="M 339.882 561.748 C 340.61 545.083 384.485 502.293 398.837 494.75 C 399.883 496.071 400.971 497.287 402.184 498.457 C 396.093 505.591 382.514 515.689 374.624 522.615 C 362.015 533.684 351.03 551.25 339.882 561.748 z"/>
<path transform="translate(0,0)" fill="rgb(32,15,58)" d="M 270.35 827.882 C 280.451 838.183 281.898 860.464 289.926 861.025 C 291.547 857.503 290.738 857.015 290.28 852.455 C 311.091 903.723 332.946 934.571 371.634 973.933 C 378.218 980.631 400.707 1002.18 404.772 1007.72 C 393.203 1006.94 355.566 974.234 348.134 965.955 C 313.87 925.94 281.012 880.871 270.35 827.882 z"/>
<path transform="translate(0,0)" fill="rgb(32,15,58)" d="M 1105.06 807.533 C 1106.91 806.51 1108.25 805.664 1109.79 804.214 C 1109.45 805.182 1109.76 804.901 1109.07 805.246 L 1111.34 806.984 C 1111.62 811.997 1111.88 816.702 1111.98 821.722 C 1107.85 858.542 1079.26 907.151 1060.18 938.728 C 1054.9 944.602 1037.4 958.748 1029.98 961.697 C 1035.21 951.196 1057.42 921.767 1065.13 909.423 C 1087.31 873.882 1094.32 846.389 1105.06 807.533 z"/>
<path transform="translate(0,0)" fill="rgb(64,48,119)" d="M 454.512 573.409 C 464.232 573.157 457.121 570.623 463.554 570.973 C 465.208 573.702 465.234 573.593 465.979 576.666 C 461.091 578.728 462.216 579.104 457.734 578.419 C 455.656 576.116 455.588 576.265 454.512 573.409 z"/>
<path transform="translate(0,0)" fill="rgb(64,48,119)" d="M 614.478 586.669 L 618.286 587.331 C 619.19 590.384 618.328 590.833 617.172 594.525 C 613.353 591.707 614.262 593.463 613.491 589.586 L 614.478 586.669 z"/>
<path transform="translate(0,0)" fill="rgb(64,48,119)" d="M 895.617 571.072 L 897.316 573.562 C 896.555 575.807 894.447 580.886 894.044 582.565 C 891.542 577.397 892.731 575.491 895.617 571.072 z"/>
<path transform="translate(0,0)" fill="rgb(64,48,119)" d="M 746 594.929 C 747.354 594.342 748.933 594.833 749.715 596.084 C 750.497 597.334 750.247 598.969 749.126 599.929 C 748.236 600.691 746.982 600.86 745.921 600.363 C 744.861 599.865 744.19 598.792 744.207 597.621 C 744.224 596.449 744.926 595.396 746 594.929 z"/>
<path transform="translate(0,0)" fill="rgb(250,249,249)" d="M 568.287 707.02 C 562.851 706.468 559.186 707.353 553.848 705.761 C 578.749 703.577 602.014 698.16 626.807 696.65 C 634.144 696.203 653.824 686.956 658.718 687.208 L 658.778 688.676 L 657.47 686.716 L 659.697 689.816 L 659.452 689.921 C 664.377 686.512 675.401 685.695 682.462 684.335 C 691.699 682.557 704.123 680.336 713.557 678.262 C 714.217 677.308 714.876 676.354 715.536 675.4 C 720.978 676.783 714.903 676.996 720.333 678.754 C 722.883 677.38 726.814 674.568 729.496 673.816 C 738.538 671.28 750.371 678.368 758.275 671.377 C 779.219 671.028 788.8 667.426 808.449 677.479 C 806.688 677.023 801.13 677.873 798.951 678.113 C 863.96 684.488 887.472 718.238 883.095 784.242 C 880.285 826.617 840.636 849.45 803.801 859.932 C 715.197 881.147 607.589 895.909 516.765 896.527 C 488.629 896.65 460.521 894.735 432.662 890.796 C 393.593 884.926 343.806 872.124 320.198 838.454 C 292.034 798.285 289.539 709.805 355.286 706.301 C 378.055 705.087 399.338 707.953 421.968 709.537 C 459.989 710.47 531.838 713.831 568.287 707.02 z"/>
<path transform="translate(0,0)" fill="rgb(64,48,119)" d="M 568.287 707.02 C 562.851 706.468 559.186 707.353 553.848 705.761 C 578.749 703.577 602.014 698.16 626.807 696.65 C 634.144 696.203 653.824 686.956 658.718 687.208 L 658.778 688.676 L 657.47 686.716 L 659.697 689.816 L 659.452 689.921 C 664.377 686.512 675.401 685.695 682.462 684.335 C 691.699 682.557 704.123 680.336 713.557 678.262 C 714.217 677.308 714.876 676.354 715.536 675.4 C 720.978 676.783 714.903 676.996 720.333 678.754 C 722.883 677.38 726.814 674.568 729.496 673.816 C 738.538 671.28 750.371 678.368 758.275 671.377 C 779.219 671.028 788.8 667.426 808.449 677.479 C 806.688 677.023 801.13 677.873 798.951 678.113 C 742.7 680.229 698.107 688.785 642.838 697.702 C 633.436 699.218 576.908 707.343 568.287 707.02 z"/>
<path transform="translate(0,0)" fill="rgb(32,15,58)" d="M 781.406 687.347 C 809.099 685.816 844.133 690.275 859.44 715.3 C 881.532 751.418 881.826 810.662 840.878 833.864 C 825.665 842.484 812.496 848.797 795.764 853.145 C 742.957 866.867 688.28 872.944 634.225 879.543 C 590.44 884.736 545.707 888.544 501.693 887.95 C 470.765 887.753 439.945 884.284 409.748 877.599 C 354.865 864.005 314.709 843.29 311.298 781.713 C 306.522 695.477 370.015 715.588 425.441 718.573 C 465.817 720.99 506.309 720.756 546.655 717.872 C 600.054 714.123 652.302 705.715 705.03 696.775 C 730.428 692.469 755.668 688.813 781.406 687.347 z"/>
<path transform="translate(0,0)" fill="rgb(250,251,250)" d="M 741.34 745.813 C 744.98 746.111 746.022 746.353 748.458 748.684 L 748.478 751.383 C 744.19 757.431 726.175 765.185 718.697 768.824 C 721.055 786.265 721.807 805.506 713.486 821.561 C 707.267 833.56 694.838 841.741 682.285 833.216 C 670.983 825.542 662.743 812.868 660.001 799.416 C 659.517 797.043 659.5 797.607 657.944 795.955 L 655.466 796.598 L 633.009 806.287 C 627.672 808.623 619.477 811.152 614.696 806.26 L 615.259 803.959 C 623.371 797.059 669.921 778.644 682.749 772.821 C 700.537 764.747 723.543 753.369 741.34 745.813 z"/>
<path transform="translate(0,0)" fill="rgb(250,251,250)" d="M 370.242 763.109 C 383.272 763.686 426.476 788.183 441.361 793.98 C 452.451 798.299 476.327 807.76 486.197 813.487 C 487.266 817.051 487.359 815.393 486.382 818.624 C 479.552 822.222 469.301 813.95 462.401 816.308 L 461.848 818.609 C 444.18 882.304 399.597 836.467 403.615 788.304 C 392.498 782.762 377.815 779.175 369.219 770.863 C 367.703 766.644 367.899 768.376 370.242 763.109 z"/>
<path transform="translate(0,0)" fill="rgb(250,251,250)" d="M 541.802 960.196 C 539.57 959.303 539.367 959.07 537.296 957.801 C 535.449 953.607 535.386 955.528 536.498 951.878 C 538.077 950.505 540.151 949.148 542.301 949.241 C 561.443 950.073 581.926 948.288 600.783 945.004 C 620.924 941.497 694.289 925.52 704.454 911.431 C 704.993 915.346 705.442 917.445 705.124 921.448 C 703.551 924.184 701.215 938.966 698.831 944.549 C 691.389 961.971 679.189 977.205 661.713 985.429 C 651.778 990.145 631.013 994.143 621.01 992.326 C 618.537 989.565 619.711 987.482 620.423 983.766 C 619.146 986.865 618.654 989.984 615.442 990.867 C 607.031 993.182 591.496 985.182 583.193 982.177 C 587.283 984.869 590.348 986.946 594.178 989.983 C 574.814 985.564 569.763 984.518 553.324 973.669 C 543.35 967.475 547.305 968.076 541.802 960.196 z"/>
<path transform="translate(0,0)" fill="rgb(27,14,84)" d="M 554.423 958.56 C 578.741 958.809 613.234 952.529 636.529 945.735 C 630.291 958.505 624.086 969.965 620.423 983.766 C 619.146 986.865 618.654 989.984 615.442 990.867 C 607.031 993.182 591.496 985.182 583.193 982.177 C 587.283 984.869 590.348 986.946 594.178 989.983 C 574.814 985.564 569.763 984.518 553.324 973.669 C 543.35 967.475 547.305 968.076 541.802 960.196 C 546.863 959.632 549.769 957.837 554.423 958.56 z"/>
<path transform="translate(0,0)" fill="rgb(192,197,209)" d="M 541.802 960.196 C 546.863 959.632 549.769 957.837 554.423 958.56 C 555.739 962.155 557.019 962.731 560.008 965.103 C 567.588 971.307 572.234 975.176 580.362 980.363 L 582.127 981.504 L 583.193 982.177 C 587.283 984.869 590.348 986.946 594.178 989.983 C 574.814 985.564 569.763 984.518 553.324 973.669 C 543.35 967.475 547.305 968.076 541.802 960.196 z"/>
<path transform="translate(0,0)" fill="rgb(250,249,249)" d="M 541.802 960.196 C 546.863 959.632 549.769 957.837 554.423 958.56 C 555.739 962.155 557.019 962.731 560.008 965.103 C 560.687 969.984 561.509 969.727 559.59 973.064 C 556.529 973.712 556.409 973.824 553.324 973.669 C 543.35 967.475 547.305 968.076 541.802 960.196 z"/>
<path transform="translate(0,0)" fill="rgb(64,48,119)" d="M 686.622 931.745 L 688.233 932.91 C 688.265 937.124 685.608 943.267 684.101 947.467 C 675.543 948.926 669.764 949.398 661.052 949.955 C 658.345 947.185 658.896 948.788 658.551 945.38 C 662.513 940.166 679.783 934.408 686.622 931.745 z"/>
<path transform="translate(0,0)" fill="rgb(250,249,249)" d="M 704.454 911.431 C 706.33 906.922 704.93 908.7 708.661 905.773 C 713.231 905.522 711.179 904.993 715.049 907.371 C 717.164 911.84 716.87 909.614 716.365 914.225 C 713.071 919.176 710.962 920.448 705.124 921.448 C 705.442 917.445 704.993 915.346 704.454 911.431 z"/>
<path transform="translate(0,0)" fill="rgb(64,48,119)" d="M 587.499 582.658 L 590.07 583.074 C 590.513 585.616 590.225 584.336 590.948 586.911 L 595.609 585.899 L 596.535 586.681 C 595.442 589.532 593.953 590.276 591.53 592.153 C 590.575 591.12 589.624 590.2 588.625 589.211 C 584.874 589.451 583.927 590.047 580.83 588.608 C 582.265 585.783 584.813 584.512 587.499 582.658 z"/>
<path transform="translate(0,0)" fill="rgb(64,48,119)" d="M 556.284 579.512 L 558.113 579.175 C 557.722 583.586 558.193 584.746 557.352 589.778 C 552.93 588.293 554.53 589.57 551.849 586.534 C 552.25 582.986 553.737 582.089 556.284 579.512 z"/>
<path transform="translate(0,0)" fill="rgb(64,48,119)" d="M 850.018 580.246 C 855.423 581.915 858.576 586.548 857.052 592.059 L 855.392 591.601 C 850.649 586.959 851.07 586.986 850.018 580.246 z"/>
<path transform="translate(0,0)" fill="rgb(64,48,119)" d="M 772.378 595.617 C 775.083 595.731 776.938 595.567 779.383 596.732 L 779.386 600.572 L 776.381 601.307 C 773.191 599.799 774.156 600.036 772.378 595.617 z"/>
<path transform="translate(0,0)" fill="rgb(64,48,119)" d="M 437.954 573.634 L 439.543 574.253 C 440.759 577.242 439.782 579.494 439.278 583.25 C 437.058 581.344 436.966 581.487 435.666 578.922 L 437.954 573.634 z"/>
<path transform="translate(0,0)" fill="rgb(64,48,119)" d="M 724.696 595.011 C 726.96 596.748 726.065 595.653 727.314 598.348 L 725.111 602.925 L 722.868 601.345 C 722.019 597.983 722.264 599.098 724.696 595.011 z"/>
<path transform="translate(0,0)" fill="rgb(64,48,119)" d="M 1031.3 589.769 C 1034.42 590.226 1034.43 590.229 1037.33 591.462 L 1037.27 593.447 L 1035.54 594.861 C 1032.81 593.867 1033.19 593.085 1031.3 589.769 z"/>
<path transform="translate(0,0)" fill="rgb(64,48,119)" d="M 978.547 573.95 C 979.953 575.27 979.212 574.419 980.531 576.696 L 978.837 582.603 L 976.579 579.87 C 976.28 575.935 975.979 577.919 978.547 573.95 z"/>
<path transform="translate(0,0)" fill="rgb(64,48,119)" d="M 883.952 583.259 C 885.277 583.273 886.381 584.275 886.524 585.592 C 886.667 586.909 885.802 588.124 884.512 588.422 C 883.529 588.648 882.503 588.289 881.876 587.5 C 881.249 586.71 881.132 585.63 881.576 584.724 C 882.019 583.818 882.944 583.248 883.952 583.259 z"/>
<path transform="translate(0,0)" fill="rgb(64,48,119)" d="M 1010.46 584.64 C 1013.38 585.335 1012.1 584.659 1014.32 586.66 L 1012.94 591.351 C 1010.08 590.901 1011.21 591.559 1009.43 589.565 L 1010.46 584.64 z"/>
<path transform="translate(0,0)" fill="rgb(64,48,119)" d="M 760.264 595.795 L 761.578 595.194 L 763.314 595.846 L 763.823 599.502 C 761.391 599.504 762.159 599.569 759.815 598.897 L 760.264 595.795 z"/>
<path transform="translate(0,0)" fill="url(#Gradient5)" d="M 1061.16 1100.18 C 1065.24 1098.54 1063.23 1098.68 1067.39 1099.59 C 1074.76 1105.63 1079.11 1119.74 1083.66 1128.75 C 1103.44 1181.34 1081.22 1249.64 1051.9 1294.09 C 1046.65 1302.04 1041.44 1310.09 1036.18 1318.03 C 1023.71 1338.05 1017.59 1478.27 1016.55 1505.98 C 1014.82 1552.36 1025.67 1611.14 1034.1 1657.08 C 1036.5 1670.13 1041.53 1689.94 1042 1702.77 C 1049.46 1733.33 1055.13 1770.64 1061.55 1802.23 C 1066.67 1827.43 1077.25 1869.62 1080.28 1894.11 C 1083.03 1902.61 1084.98 1914.45 1088.52 1922.29 C 1096.8 1940.6 1133.9 1978.84 1096.83 1989.69 C 1070.73 1997.33 1032.76 1995.11 1005.2 1991.2 C 993.899 1989.9 951.912 1984.15 944.411 1979.6 C 931.657 1971.87 898.688 1936.35 887.412 1923.94 C 869.363 1907.69 849.616 1885.81 832.03 1868.33 C 779.192 1815.8 726.798 1760.64 673.258 1708.94 C 645.396 1704.88 611.795 1699.15 584.267 1696.38 C 549.274 1754.79 512.627 1832.16 482.288 1893.81 C 475.529 1907.31 468.953 1920.9 462.561 1934.58 C 458.049 1944.26 450.421 1961.88 444.477 1970.28 C 433.618 1973.79 406.041 1979.17 394.237 1979.42 C 367.768 1985.27 260.288 1993.14 239.533 1978.97 C 238.14 1976.23 236.443 1973.21 237.098 1970.1 C 240.983 1951.63 277.782 1926.55 292.871 1914.65 L 291.427 1901.9 C 289.278 1889.27 287.532 1874.9 286.198 1862.16 C 279.441 1797.63 269.782 1730.58 268.203 1665.78 C 266.702 1657.43 266.346 1634.17 265.993 1624.69 C 263.745 1564.32 265.609 1482.96 281.881 1424.57 C 275.827 1423.81 273.59 1423.27 267.725 1421.53 C 260.445 1421.25 242.134 1414.75 235.378 1411.51 C 163.036 1376.79 181.654 1298.1 208.895 1240.17 C 229.947 1197.77 275.992 1132.94 316.822 1110.84 L 320.136 1116.01 C 337.612 1136.77 370.347 1169 397.745 1174.2 C 402.621 1176.75 417.133 1183.09 422.318 1184.63 L 422.061 1186.1 C 422.879 1186.48 444.734 1196.73 443.96 1196.53 C 448.749 1199.36 451.623 1200.37 453.924 1205.3 C 463.838 1208.4 516.24 1202.84 528.987 1201.25 C 586.122 1199.12 623.336 1199.1 679.92 1212.09 C 690.253 1215.22 700.625 1218.22 711.034 1221.08 C 722.702 1225.39 741.842 1237.36 750.337 1239.91 C 755.305 1237.5 802.5 1225.65 808.569 1226.12 C 811.772 1228.29 811.997 1228.7 816.086 1228.59 L 821.736 1224.27 C 828.962 1214.82 850.637 1196.32 859.789 1188.35 C 864.983 1185.59 866.395 1184.93 872.078 1185.2 C 875.12 1184.92 895.172 1176.44 899.18 1174.83 C 945.06 1156.44 1014.49 1132.73 1054.46 1105.37 C 1058.19 1103.53 1058.31 1103.08 1061.16 1100.18 z"/>
<path transform="translate(0,0)" fill="url(#Gradient4)" d="M 1061.16 1100.18 C 1065.24 1098.54 1063.23 1098.68 1067.39 1099.59 C 1074.76 1105.63 1079.11 1119.74 1083.66 1128.75 C 1103.44 1181.34 1081.22 1249.64 1051.9 1294.09 C 1046.65 1302.04 1041.44 1310.09 1036.18 1318.03 C 1023.71 1338.05 1017.59 1478.27 1016.55 1505.98 C 1014.82 1552.36 1025.67 1611.14 1034.1 1657.08 C 1036.5 1670.13 1041.53 1689.94 1042 1702.77 C 1041.41 1708.2 1042.02 1716.05 1040.77 1720.56 C 1039.62 1724.72 1041.78 1720.34 1040.09 1727.02 C 1039.12 1719.14 1032.47 1685.51 1027.64 1680.52 C 1007.49 1586.26 1000.5 1499.88 1011.89 1403.97 C 1014.55 1381.56 1016.01 1358.73 1020.65 1336.59 C 1011.29 1345.45 1000.71 1356.67 991.71 1366.01 L 990.873 1366.62 C 975.309 1377.99 960.774 1393.12 945.302 1404.65 C 880.792 1452.72 813.832 1480.97 732.115 1465.48 C 657.989 1451.42 577.593 1423.79 513.768 1383.36 C 450.396 1405.75 369.382 1430.18 300.916 1425.79 L 296.593 1423.18 C 286.24 1423.5 277.934 1420.59 267.725 1421.53 C 260.445 1421.25 242.134 1414.75 235.378 1411.51 C 163.036 1376.79 181.654 1298.1 208.895 1240.17 C 229.947 1197.77 275.992 1132.94 316.822 1110.84 L 320.136 1116.01 C 337.612 1136.77 370.347 1169 397.745 1174.2 C 402.621 1176.75 417.133 1183.09 422.318 1184.63 L 422.061 1186.1 C 422.879 1186.48 444.734 1196.73 443.96 1196.53 C 448.749 1199.36 451.623 1200.37 453.924 1205.3 C 463.838 1208.4 516.24 1202.84 528.987 1201.25 C 586.122 1199.12 623.336 1199.1 679.92 1212.09 C 690.253 1215.22 700.625 1218.22 711.034 1221.08 C 722.702 1225.39 741.842 1237.36 750.337 1239.91 C 755.305 1237.5 802.5 1225.65 808.569 1226.12 C 811.772 1228.29 811.997 1228.7 816.086 1228.59 L 821.736 1224.27 C 828.962 1214.82 850.637 1196.32 859.789 1188.35 C 864.983 1185.59 866.395 1184.93 872.078 1185.2 C 875.12 1184.92 895.172 1176.44 899.18 1174.83 C 945.06 1156.44 1014.49 1132.73 1054.46 1105.37 C 1058.19 1103.53 1058.31 1103.08 1061.16 1100.18 z"/>
<path transform="translate(0,0)" fill="url(#Gradient3)" d="M 1061.16 1100.18 C 1065.24 1098.54 1063.23 1098.68 1067.39 1099.59 C 1074.76 1105.63 1079.11 1119.74 1083.66 1128.75 C 1103.44 1181.34 1081.22 1249.64 1051.9 1294.09 C 1046.65 1302.04 1041.44 1310.09 1036.18 1318.03 L 1034.43 1314.51 L 1030.32 1315.99 L 1028.88 1315.27 C 1028.62 1315.97 1040.38 1301.55 1042.22 1298.31 C 1048.94 1286.4 1055.2 1274.44 1061.45 1262.29 L 1060.46 1260.62 L 1057.5 1260.03 C 1029.02 1318.94 975.29 1369.74 921.894 1406.64 C 867.275 1419.13 829.6 1424.03 772.685 1412.2 C 748.4 1407.03 684.222 1390 669.604 1371.2 C 651.617 1348.07 743.325 1299.9 755.64 1293.27 L 757.273 1292.37 C 759.674 1291.61 766.154 1289.55 767.902 1288.05 C 785.016 1273.42 815.459 1246.22 829.589 1230.1 C 830.426 1223.87 834.587 1220.52 838.876 1215.55 L 838.019 1215.18 C 830.575 1218.46 830.305 1220.33 824.027 1225.08 L 821.736 1224.27 C 828.962 1214.82 850.637 1196.32 859.789 1188.35 C 864.983 1185.59 866.395 1184.93 872.078 1185.2 C 875.12 1184.92 895.172 1176.44 899.18 1174.83 C 945.06 1156.44 1014.49 1132.73 1054.46 1105.37 C 1058.19 1103.53 1058.31 1103.08 1061.16 1100.18 z"/>
<path transform="translate(0,0)" fill="rgb(34,15,58)" d="M 1061.16 1100.18 C 1065.24 1098.54 1063.23 1098.68 1067.39 1099.59 C 1074.76 1105.63 1079.11 1119.74 1083.66 1128.75 C 1103.44 1181.34 1081.22 1249.64 1051.9 1294.09 C 1046.65 1302.04 1041.44 1310.09 1036.18 1318.03 L 1034.43 1314.51 L 1030.32 1315.99 L 1028.88 1315.27 C 1028.62 1315.97 1040.38 1301.55 1042.22 1298.31 C 1048.94 1286.4 1055.2 1274.44 1061.45 1262.29 L 1060.46 1260.62 L 1057.5 1260.03 C 1060.52 1253.88 1063.33 1247.63 1065.93 1241.3 C 1077.29 1213.71 1085.07 1181.82 1080.09 1151.88 C 1077.02 1133.44 1068.2 1117.16 1061.16 1100.18 z"/>
<path transform="translate(0,0)" fill="rgb(34,15,58)" d="M 859.789 1188.35 C 864.983 1185.59 866.395 1184.93 872.078 1185.2 C 869.576 1193.58 837.874 1222.48 829.589 1230.1 C 830.426 1223.87 834.587 1220.52 838.876 1215.55 L 838.019 1215.18 C 830.575 1218.46 830.305 1220.33 824.027 1225.08 L 821.736 1224.27 C 828.962 1214.82 850.637 1196.32 859.789 1188.35 z"/>
<path transform="translate(0,0)" fill="rgb(32,15,58)" d="M 276.325 1260.57 C 222.32 1227.11 280.432 1182.52 318.395 1175.84 C 339.475 1172.13 353.116 1169.32 374.527 1174.61 C 384.614 1176.22 418.568 1185.98 422.061 1186.1 C 422.879 1186.48 444.734 1196.73 443.96 1196.53 C 448.749 1199.36 451.623 1200.37 453.924 1205.3 C 463.838 1208.4 516.24 1202.84 528.987 1201.25 C 586.122 1199.12 623.336 1199.1 679.92 1212.09 C 690.253 1215.22 700.625 1218.22 711.034 1221.08 C 722.702 1225.39 741.842 1237.36 750.337 1239.91 C 755.305 1237.5 802.5 1225.65 808.569 1226.12 C 811.772 1228.29 811.997 1228.7 816.086 1228.59 L 821.736 1224.27 L 824.027 1225.08 C 830.305 1220.33 830.575 1218.46 838.019 1215.18 L 838.876 1215.55 C 834.587 1220.52 830.426 1223.87 829.589 1230.1 C 815.459 1246.22 785.016 1273.42 767.902 1288.05 C 766.154 1289.55 759.674 1291.61 757.273 1292.37 L 755.64 1293.27 C 743.325 1299.9 651.617 1348.07 669.604 1371.2 C 684.222 1390 748.4 1407.03 772.685 1412.2 C 829.6 1424.03 867.275 1419.13 921.894 1406.64 C 975.29 1369.74 1029.02 1318.94 1057.5 1260.03 L 1060.46 1260.62 L 1061.45 1262.29 C 1055.2 1274.44 1048.94 1286.4 1042.22 1298.31 C 1040.38 1301.55 1028.62 1315.97 1028.88 1315.27 L 1030.32 1315.99 L 1034.43 1314.51 L 1036.18 1318.03 C 1023.71 1338.05 1017.59 1478.27 1016.55 1505.98 C 1014.82 1552.36 1025.67 1611.14 1034.1 1657.08 C 1036.5 1670.13 1041.53 1689.94 1042 1702.77 C 1041.41 1708.2 1042.02 1716.05 1040.77 1720.56 C 1039.62 1724.72 1041.78 1720.34 1040.09 1727.02 C 1039.12 1719.14 1032.47 1685.51 1027.64 1680.52 C 1007.49 1586.26 1000.5 1499.88 1011.89 1403.97 C 1014.55 1381.56 1016.01 1358.73 1020.65 1336.59 C 1011.29 1345.45 1000.71 1356.67 991.71 1366.01 L 990.873 1366.62 C 975.309 1377.99 960.774 1393.12 945.302 1404.65 C 880.792 1452.72 813.832 1480.97 732.115 1465.48 C 657.989 1451.42 577.593 1423.79 513.768 1383.36 C 450.396 1405.75 369.382 1430.18 300.916 1425.79 L 296.593 1423.18 C 286.24 1423.5 277.934 1420.59 267.725 1421.53 C 260.445 1421.25 242.134 1414.75 235.378 1411.51 C 163.036 1376.79 181.654 1298.1 208.895 1240.17 C 209.495 1254.3 208.353 1256.73 203.022 1269.77 C 192.978 1294.34 185.954 1340.98 198.726 1365.5 C 200.704 1363.22 199.527 1362.78 201.286 1360.11 C 207.329 1375.29 215.629 1387 229.187 1396.29 C 307.956 1450.24 487.713 1384.37 568.119 1352.28 C 615.411 1333.41 661.665 1310.26 710.022 1294.25 C 727.198 1288.57 745.118 1285.54 762.846 1282.13 C 767.133 1277.94 772.126 1274.65 771.649 1268.4 C 681.284 1186.49 494.663 1206.34 385.106 1231.37 C 362.857 1236.53 340.774 1242.38 318.888 1248.91 C 306.38 1252.54 290.458 1257.77 277.956 1260.25 L 276.325 1260.57 z"/>
<path transform="translate(0,0)" fill="rgb(93,82,148)" d="M 524.028 1379.2 C 551.878 1370.34 579.231 1357.21 606.574 1346.96 C 655.158 1328.77 705.934 1300.69 757.273 1292.37 L 755.64 1293.27 C 743.325 1299.9 651.617 1348.07 669.604 1371.2 C 684.222 1390 748.4 1407.03 772.685 1412.2 C 829.6 1424.03 867.275 1419.13 921.894 1406.64 C 898.831 1424.82 866.545 1441.66 838.829 1450.5 C 740.385 1481.93 610.939 1424.02 524.028 1379.2 z"/>
<path transform="translate(0,0)" fill="url(#Gradient2)" d="M 374.527 1174.61 C 384.614 1176.22 418.568 1185.98 422.061 1186.1 C 422.879 1186.48 444.734 1196.73 443.96 1196.53 C 448.749 1199.36 451.623 1200.37 453.924 1205.3 C 457.07 1213.34 456.553 1205.56 458.746 1213.07 L 457.891 1214 C 454.298 1212.74 450.531 1211.31 447.265 1209.3 L 444.987 1211.38 C 431.293 1210.2 410.289 1217.1 401.546 1216.02 C 368.965 1212 343.722 1213.16 311.358 1219.47 C 304.841 1220.74 272.904 1224.78 268.756 1222.45 L 270.201 1215.47 C 280.984 1199.16 294.086 1193.04 311.569 1186.59 L 309.431 1186 L 309.736 1184.66 C 320.825 1180 332.265 1180.03 343.945 1177.43 L 344.019 1176.8 C 340.625 1176.8 335.321 1177.44 333.075 1175.84 C 339.482 1173.48 363.593 1175.32 373.063 1174.71 L 374.527 1174.61 z"/>
<path transform="translate(0,0)" fill="rgb(13,16,37)" d="M 374.527 1174.61 C 384.614 1176.22 418.568 1185.98 422.061 1186.1 C 422.879 1186.48 444.734 1196.73 443.96 1196.53 C 448.749 1199.36 451.623 1200.37 453.924 1205.3 C 457.07 1213.34 456.553 1205.56 458.746 1213.07 L 457.891 1214 C 454.298 1212.74 450.531 1211.31 447.265 1209.3 C 401.622 1184.56 362.611 1172.63 311.569 1186.59 L 309.431 1186 L 309.736 1184.66 C 320.825 1180 332.265 1180.03 343.945 1177.43 L 344.019 1176.8 C 340.625 1176.8 335.321 1177.44 333.075 1175.84 C 339.482 1173.48 363.593 1175.32 373.063 1174.71 L 374.527 1174.61 z"/>
<path transform="translate(0,0)" fill="rgb(93,82,148)" d="M 270.201 1215.47 L 268.756 1222.45 C 272.904 1224.78 304.841 1220.74 311.358 1219.47 C 343.722 1213.16 368.965 1212 401.546 1216.02 C 410.289 1217.1 431.293 1210.2 444.987 1211.38 C 434.108 1214.36 420.503 1214.45 409.123 1216.6 C 366.903 1224.59 326.754 1236.35 285.656 1248.35 C 268.098 1253.49 258.789 1231.73 270.201 1215.47 z"/>
<path transform="translate(0,0)" fill="rgb(120,110,175)" d="M 750.337 1239.91 C 755.305 1237.5 802.5 1225.65 808.569 1226.12 C 811.772 1228.29 811.997 1228.7 816.086 1228.59 C 804.253 1239.84 791.164 1251.68 779.669 1263.06 C 769.858 1253.2 761.945 1247.63 750.337 1239.91 z"/>
<path transform="translate(0,0)" fill="rgb(93,82,148)" d="M 771.649 1268.4 C 772.126 1274.65 767.133 1277.94 762.846 1282.13 C 745.118 1285.54 727.198 1288.57 710.022 1294.25 C 661.665 1310.26 615.411 1333.41 568.119 1352.28 C 487.713 1384.37 307.956 1450.24 229.187 1396.29 C 215.629 1387 207.329 1375.29 201.286 1360.11 C 197.295 1345.19 194.728 1323.08 198.291 1307.94 C 198.831 1314.71 198.583 1325.96 198.756 1333.2 C 209.368 1346.28 229.77 1354.37 245.569 1358.68 C 351.667 1387.63 535.615 1319.8 642.589 1290.9 C 668.385 1283.93 695.615 1274.66 722.14 1271.38 C 733.232 1270 749.107 1270 759.6 1273.8 C 762.201 1274.74 763.568 1275.38 766.4 1275.04 C 769.908 1273.1 770.009 1272.05 771.649 1268.4 z"/>
<path transform="translate(0,0)" fill="rgb(34,15,58)" d="M 316.822 1110.84 L 320.136 1116.01 C 305.94 1131.6 289.326 1146.32 275.711 1161.2 C 240.72 1199.46 206.277 1256.48 198.291 1307.94 C 194.728 1323.08 197.295 1345.19 201.286 1360.11 C 199.527 1362.78 200.704 1363.22 198.726 1365.5 C 185.954 1340.98 192.978 1294.34 203.022 1269.77 C 208.353 1256.73 209.495 1254.3 208.895 1240.17 C 229.947 1197.77 275.992 1132.94 316.822 1110.84 z"/>
<path transform="translate(0,0)" fill="rgb(32,15,58)" d="M 267.725 1421.53 C 277.934 1420.59 286.24 1423.5 296.593 1423.18 L 300.916 1425.79 C 295.735 1425.76 295.809 1424.98 291.849 1427.1 C 289.849 1433.74 282.299 1477.13 282.96 1482.58 C 279.564 1507.97 277.544 1533.54 276.909 1559.15 C 276.581 1570.8 277.103 1594.41 276.083 1604.99 C 278.889 1707.99 289.972 1793.77 300.963 1895.02 C 302.545 1899.64 303.548 1913.04 303.957 1918.08 C 291.724 1933.79 256.91 1951.5 249.071 1967.73 C 249.1 1971.76 248.436 1970.01 251.351 1973.06 C 285.935 1983.06 398.161 1970.08 435.447 1963.55 C 445.225 1947.99 462.897 1909.41 471.476 1891.82 C 495.134 1843.3 517.989 1795.05 543.958 1747.56 C 542.306 1745.15 531.21 1733.5 528.313 1730.31 C 514.142 1714.69 501.066 1701 489.676 1683.03 C 488.851 1678.04 488.24 1680.03 490.303 1676.54 C 504.538 1671.13 626.708 1693.7 648.858 1694.81 C 654.845 1695.11 676.514 1699.45 681.262 1703.58 C 698.023 1718.13 714.53 1735.16 730.349 1750.82 L 884.42 1905.91 C 904.873 1926.77 926.706 1951.44 947.226 1971.23 C 973.9 1977.64 995.289 1980.57 1022.33 1983.66 C 1015.65 1984.45 1009.52 1985.51 1005.2 1991.2 C 993.899 1989.9 951.912 1984.15 944.411 1979.6 C 931.657 1971.87 898.688 1936.35 887.412 1923.94 C 869.363 1907.69 849.616 1885.81 832.03 1868.33 C 779.192 1815.8 726.798 1760.64 673.258 1708.94 C 645.396 1704.88 611.795 1699.15 584.267 1696.38 C 549.274 1754.79 512.627 1832.16 482.288 1893.81 C 475.529 1907.31 468.953 1920.9 462.561 1934.58 C 458.049 1944.26 450.421 1961.88 444.477 1970.28 C 433.618 1973.79 406.041 1979.17 394.237 1979.42 C 367.768 1985.27 260.288 1993.14 239.533 1978.97 C 238.14 1976.23 236.443 1973.21 237.098 1970.1 C 240.983 1951.63 277.782 1926.55 292.871 1914.65 L 291.427 1901.9 C 289.278 1889.27 287.532 1874.9 286.198 1862.16 C 279.441 1797.63 269.782 1730.58 268.203 1665.78 C 266.702 1657.43 266.346 1634.17 265.993 1624.69 C 263.745 1564.32 265.609 1482.96 281.881 1424.57 C 275.827 1423.81 273.59 1423.27 267.725 1421.53 z"/>
<path transform="translate(0,0)" fill="rgb(93,82,148)" d="M 489.676 1683.03 C 507.678 1688.23 552.82 1691.03 574.851 1695.89 C 568.189 1706.87 548.746 1737.45 543.958 1747.56 C 542.306 1745.15 531.21 1733.5 528.313 1730.31 C 514.142 1714.69 501.066 1701 489.676 1683.03 z"/>
<path transform="translate(0,0)" fill="rgb(34,15,58)" d="M 887.412 1923.94 C 902.158 1925.81 933.337 1974.39 946.105 1972.14 L 947.226 1971.23 C 973.9 1977.64 995.289 1980.57 1022.33 1983.66 C 1015.65 1984.45 1009.52 1985.51 1005.2 1991.2 C 993.899 1989.9 951.912 1984.15 944.411 1979.6 C 931.657 1971.87 898.688 1936.35 887.412 1923.94 z"/>
<path transform="translate(0,0)" fill="rgb(34,15,58)" d="M 239.533 1978.97 C 258.407 1978.39 278.205 1982.65 297.723 1981.97 C 316.311 1981.33 335.249 1981.39 353.865 1980.5 C 364.158 1980.01 373.199 1977.53 383.54 1978.49 L 394.237 1979.42 C 367.768 1985.27 260.288 1993.14 239.533 1978.97 z"/>
<path transform="translate(0,0)" fill="rgb(93,82,148)" d="M 513.768 1383.36 C 577.593 1423.79 657.989 1451.42 732.115 1465.48 C 813.832 1480.97 880.792 1452.72 945.302 1404.65 C 960.774 1393.12 975.309 1377.99 990.873 1366.62 L 991.71 1366.01 C 986.909 1377.87 983.485 1375.39 975.871 1383.42 C 983.214 1380.85 985.923 1380.56 990.437 1374.18 L 990.766 1376.04 C 936.924 1434.24 872.082 1492.58 788.05 1496.57 C 717.523 1499.92 647.127 1477.42 584.259 1447.25 C 572.705 1441.71 534.293 1421.38 524.622 1421.31 C 499.892 1421.13 458.904 1438.39 434.112 1444.83 C 389.754 1456.35 332.597 1465.55 287.209 1461.03 C 286.546 1465.32 284.814 1479.91 282.96 1482.58 C 282.299 1477.13 289.849 1433.74 291.849 1427.1 C 295.809 1424.98 295.735 1425.76 300.916 1425.79 C 369.382 1430.18 450.396 1405.75 513.768 1383.36 z"/>
<path transform="translate(0,0)" fill="rgb(34,15,58)" d="M 1027.64 1680.52 C 1032.47 1685.51 1039.12 1719.14 1040.09 1727.02 C 1041.78 1720.34 1039.62 1724.72 1040.77 1720.56 C 1042.02 1716.05 1041.41 1708.2 1042 1702.77 C 1049.46 1733.33 1055.13 1770.64 1061.55 1802.23 C 1066.67 1827.43 1077.25 1869.62 1080.28 1894.11 C 1078.17 1891.39 1077.69 1889.57 1075.2 1889.21 C 1073.48 1895.51 1080.12 1907.11 1077.53 1923.01 C 1070.51 1902.32 1061.82 1858.5 1057.25 1835.6 C 1047.25 1785.61 1035.04 1730.79 1027.64 1680.52 z"/>
<path transform="translate(0,0)" fill="rgb(32,15,58)" d="M 1077.53 1923.01 C 1080.12 1907.11 1073.48 1895.51 1075.2 1889.21 C 1077.69 1889.57 1078.17 1891.39 1080.28 1894.11 C 1083.03 1902.61 1084.98 1914.45 1088.52 1922.29 C 1096.8 1940.6 1133.9 1978.84 1096.83 1989.69 C 1070.73 1997.33 1032.76 1995.11 1005.2 1991.2 C 1009.52 1985.51 1015.65 1984.45 1022.33 1983.66 C 1038.73 1984.18 1093.03 1987.63 1101.78 1973.5 C 1103.37 1963.54 1083.99 1936.89 1078.31 1924.72 L 1077.53 1923.01 z"/>
<path transform="translate(0,0)" fill="url(#Gradient1)" d="M 1827.52 903.826 C 1924.47 885.841 2039.69 905.012 2134.47 927.025 C 2144.49 929.353 2182.96 937.428 2187.14 945.835 C 2184.2 953.451 2106.76 985.562 2116.93 1003.01 C 2126.43 1019.32 2210.76 1090.27 2208.11 1106.28 C 2200.59 1112.15 2173.21 1100.51 2163.96 1097.43 C 2152.1 1093.49 2140.13 1089.92 2128.05 1086.72 C 2006.38 1053.2 1876.72 1035.44 1758.43 1091.4 C 1721.12 1109.05 1688.92 1134.73 1655.49 1158.49 C 1590.27 1204.12 1519.46 1236.77 1439.6 1244.52 C 1417.73 1246.64 1370.72 1248.49 1349.83 1243.44 C 1341.33 1244.04 1311.26 1237.04 1302.28 1235.03 C 1234.95 1219.66 1171.35 1184.74 1114.22 1146.71 C 1105.05 1140.6 1095.37 1133.28 1085.99 1127.75 L 1083.66 1128.75 C 1079.11 1119.74 1074.76 1105.63 1067.39 1099.59 C 1063.23 1098.68 1065.24 1098.54 1061.16 1100.18 C 1058.31 1103.08 1058.19 1103.53 1054.46 1105.37 C 1054.86 1100.46 1069.02 1088.77 1075.02 1082.41 C 1085.26 1082.05 1105.95 1087.52 1118.04 1089.3 C 1133.7 1091.61 1152.92 1091.03 1167.71 1093.62 C 1192.81 1098.46 1221.01 1094.69 1246.32 1096.05 C 1252.85 1096.41 1291.84 1096.59 1294.23 1097.5 C 1274.92 1101.86 1258.65 1103.11 1238.9 1102.95 C 1285.98 1126.55 1321.98 1136.86 1375.15 1139.38 C 1445.04 1138.55 1490.99 1114.63 1542.66 1070.11 C 1559.12 1055.44 1573.99 1038.03 1589.49 1022.35 C 1615.7 995.837 1651.9 965.75 1685.15 948.908 C 1705.23 936.26 1736.71 924.528 1759.61 918.422 C 1776.03 913.262 1793.11 909.78 1809.99 906.561 C 1815.99 905.278 1821.47 904.615 1827.52 903.826 z"/>
<path transform="translate(0,0)" fill="rgb(205,32,141)" d="M 1827.52 903.826 C 1924.47 885.841 2039.69 905.012 2134.47 927.025 C 2144.49 929.353 2182.96 937.428 2187.14 945.835 C 2184.2 953.451 2106.76 985.562 2116.93 1003.01 C 2126.43 1019.32 2210.76 1090.27 2208.11 1106.28 C 2200.59 1112.15 2173.21 1100.51 2163.96 1097.43 C 2152.1 1093.49 2140.13 1089.92 2128.05 1086.72 C 2006.38 1053.2 1876.72 1035.44 1758.43 1091.4 C 1721.12 1109.05 1688.92 1134.73 1655.49 1158.49 C 1590.27 1204.12 1519.46 1236.77 1439.6 1244.52 C 1417.73 1246.64 1370.72 1248.49 1349.83 1243.44 C 1341.33 1244.04 1311.26 1237.04 1302.28 1235.03 C 1234.95 1219.66 1171.35 1184.74 1114.22 1146.71 C 1105.05 1140.6 1095.37 1133.28 1085.99 1127.75 L 1083.66 1128.75 C 1079.11 1119.74 1074.76 1105.63 1067.39 1099.59 C 1063.23 1098.68 1065.24 1098.54 1061.16 1100.18 C 1058.31 1103.08 1058.19 1103.53 1054.46 1105.37 C 1054.86 1100.46 1069.02 1088.77 1075.02 1082.41 C 1085.26 1082.05 1105.95 1087.52 1118.04 1089.3 C 1133.7 1091.61 1152.92 1091.03 1167.71 1093.62 C 1192.81 1098.46 1221.01 1094.69 1246.32 1096.05 C 1252.85 1096.41 1291.84 1096.59 1294.23 1097.5 C 1274.92 1101.86 1258.65 1103.11 1238.9 1102.95 C 1285.98 1126.55 1321.98 1136.86 1375.15 1139.38 C 1380.39 1141.38 1384.76 1139.13 1389.29 1140.27 C 1383.29 1140.98 1359.73 1142.62 1356.07 1145.56 L 1355.97 1146.37 L 1355.21 1146.72 C 1321.8 1143.93 1286.97 1131.75 1254.58 1122.38 C 1247.86 1120.67 1236.87 1109.04 1230.34 1108.19 C 1185.42 1102.37 1138.58 1105.43 1094.54 1093.66 C 1089.56 1092.33 1074.31 1089.02 1073.26 1096.57 C 1085.71 1127.3 1117.26 1133.61 1140.69 1154.39 C 1144.59 1157.85 1147.08 1153.95 1149.17 1156.27 C 1158.12 1166.23 1170.93 1169.42 1182.63 1176.05 L 1177.88 1176.75 L 1177.63 1177.82 C 1182.46 1181.87 1181.24 1176.71 1187.43 1180.45 C 1188.28 1183 1188.59 1183.84 1189.78 1186.22 L 1192.01 1186.39 L 1194.04 1182.77 L 1195.77 1182.93 C 1196.74 1185.66 1196.55 1185.99 1198.66 1187.84 C 1206.3 1188.54 1211.69 1189.98 1218.05 1194.27 C 1227.39 1200.57 1238.44 1202.79 1248.81 1206.38 C 1279.12 1216.86 1308.31 1227.68 1340.29 1232.36 C 1391.79 1239.9 1450 1237.97 1500.34 1224.13 C 1545.43 1211.73 1599.63 1183.92 1638.15 1157.69 C 1657.32 1144.63 1675.1 1129.01 1694.14 1115.59 C 1711.08 1103.65 1732.26 1092.43 1750.98 1083.5 C 1783.75 1067.85 1814.4 1056.74 1850.31 1050.65 C 1863.17 1048.46 1876.46 1047.97 1889.18 1045.22 C 1897.87 1043.33 1908.05 1045 1917.04 1044.73 C 1998.95 1042.21 2052.9 1055.54 2130.51 1075.54 C 2152.7 1081.26 2166.46 1084.7 2187.73 1093.44 C 2187.67 1091.13 2182.86 1087.88 2181.23 1085.56 C 2162.56 1059.67 2138.48 1039.83 2115.84 1017.09 C 2088.6 989.73 2130.89 971.976 2150.21 959.229 C 2155.16 955.969 2172.42 951.442 2172.66 945.144 C 2170.26 943.421 2158.33 942.259 2154.36 941.21 C 2037.79 910.386 1929.18 896.214 1809.65 916.122 C 1805.8 915.699 1797.05 914.754 1793.51 915.144 C 1781.65 916.449 1771.85 920.276 1759.61 918.422 C 1776.03 913.262 1793.11 909.78 1809.99 906.561 C 1815.99 905.278 1821.47 904.615 1827.52 903.826 z"/>
<path transform="translate(0,0)" fill="rgb(218,31,163)" d="M 1302.28 1235.03 L 1311.51 1234.55 C 1313.5 1232.3 1313.92 1231.67 1315.52 1229.12 C 1322.7 1230.03 1328.86 1237.02 1340.8 1234.49 C 1344.27 1233.75 1360.89 1238.04 1365.35 1237.8 C 1375.83 1239.49 1404.95 1234.88 1412.35 1237.77 L 1411.59 1238.81 C 1399.14 1239.9 1387.32 1241.69 1374.86 1242.54 C 1368.79 1242.96 1354 1241.67 1349.83 1243.44 C 1341.33 1244.04 1311.26 1237.04 1302.28 1235.03 z"/>
<path transform="translate(0,0)" fill="rgb(205,32,141)" d="M 1809.99 906.561 C 1815.99 905.278 1821.47 904.615 1827.52 903.826 C 1833.06 906.026 1836.51 904.797 1840.6 906.443 C 1837.11 914.132 1819.17 911.159 1812.37 909.829 C 1810.69 909.5 1810.65 908.097 1809.99 906.561 z"/>
<path transform="translate(0,0)" fill="rgb(218,31,163)" d="M 1542.66 1070.11 L 1543.68 1074.16 C 1547.69 1074 1550.03 1071.28 1553.9 1069.46 L 1553.19 1070.29 C 1550.26 1073.81 1550.14 1073.96 1548.65 1078.17 C 1503.47 1117.08 1450.57 1148.1 1389.3 1148.05 C 1381.16 1148.05 1362.04 1149.5 1355.21 1146.72 L 1355.97 1146.37 L 1356.07 1145.56 C 1359.73 1142.62 1383.29 1140.98 1389.29 1140.27 C 1384.76 1139.13 1380.39 1141.38 1375.15 1139.38 C 1445.04 1138.55 1490.99 1114.63 1542.66 1070.11 z"/>
<path transform="translate(0,0)" fill="rgb(205,32,141)" d="M 1542.66 1070.11 C 1559.12 1055.44 1573.99 1038.03 1589.49 1022.35 C 1615.7 995.837 1651.9 965.75 1685.15 948.908 C 1689.23 949.909 1695.09 951.551 1699.09 952.101 C 1667.63 969.067 1636.75 988.822 1611.49 1014.37 C 1591.93 1034.15 1570.14 1060.65 1548.65 1078.17 C 1550.14 1073.96 1550.26 1073.81 1553.19 1070.29 L 1553.9 1069.46 C 1550.03 1071.28 1547.69 1074 1543.68 1074.16 L 1542.66 1070.11 z"/>
<path transform="translate(0,0)" fill="rgb(218,31,163)" d="M 1759.61 918.422 C 1771.85 920.276 1781.65 916.449 1793.51 915.144 C 1797.05 914.754 1805.8 915.699 1809.65 916.122 C 1764.83 928.069 1742.35 932.694 1699.09 952.101 C 1695.09 951.551 1689.23 949.909 1685.15 948.908 C 1705.23 936.26 1736.71 924.528 1759.61 918.422 z"/>
<path transform="translate(0,0)" fill="rgb(250,251,250)" fill-opacity="0.0117647" d="M 244.234 1763.73 C 242.22 1761.8 240.672 1759.33 239.107 1757.03 C 238.321 1755.88 237.6 1754.67 236.753 1753.56 C 235.628 1752.08 234.438 1750.86 233.472 1749.24 C 224.584 1734.33 225.439 1529.07 231.74 1505.83 C 232.534 1506.75 232.988 1507.79 233.525 1508.87 L 237.31 1505 C 231.684 1596.03 235.584 1672.84 244.234 1763.73 z"/>
</svg>