<svg version="1.1" xmlns="http://www.w3.org/2000/svg" style="display: block;" viewBox="0 0 3716 3716" width="3452" height="3716" preserveAspectRatio="none">
<defs>
	<linearGradient id="Gradient1" gradientUnits="userSpaceOnUse" x1="3027.6" y1="1955.89" x2="2491.96" y2="1418.96">
		<stop class="stop0" offset="0" stop-opacity="1" stop-color="rgb(198,114,56)"/>
		<stop class="stop1" offset="1" stop-opacity="1" stop-color="rgb(234,144,82)"/>
	</linearGradient>
	<linearGradient id="Gradient2" gradientUnits="userSpaceOnUse" x1="1587.21" y1="3172.64" x2="1379.6" y2="2786.8">
		<stop class="stop0" offset="0" stop-opacity="1" stop-color="rgb(3,0,27)"/>
		<stop class="stop1" offset="1" stop-opacity="1" stop-color="rgb(41,36,76)"/>
	</linearGradient>
	<linearGradient id="Gradient3" gradientUnits="userSpaceOnUse" x1="937.186" y1="2034.68" x2="1102.38" y2="2576.35">
		<stop class="stop0" offset="0" stop-opacity="1" stop-color="rgb(86,82,145)"/>
		<stop class="stop1" offset="1" stop-opacity="1" stop-color="rgb(142,135,193)"/>
	</linearGradient>
	<linearGradient id="Gradient4" gradientUnits="userSpaceOnUse" x1="1648.64" y1="849.067" x2="1667.71" y2="1777.45">
		<stop class="stop0" offset="0" stop-opacity="1" stop-color="rgb(55,44,111)"/>
		<stop class="stop1" offset="1" stop-opacity="1" stop-color="rgb(96,89,153)"/>
	</linearGradient>
	<linearGradient id="Gradient5" gradientUnits="userSpaceOnUse" x1="1763.18" y1="1904.28" x2="1740.36" y2="3245.63">
		<stop class="stop0" offset="0" stop-opacity="1" stop-color="rgb(101,93,159)"/>
		<stop class="stop1" offset="1" stop-opacity="1" stop-color="rgb(185,188,238)"/>
	</linearGradient>
</defs>
<path transform="translate(0,0)" fill="rgb(244,243,241)" d="M 1139.8 1713.61 C 1099.64 1667.54 1063.1 1591.61 1045.2 1534.34 C 1002.23 1396.6 1015.82 1247.42 1082.96 1119.71 C 1162.77 967.878 1297.47 865.605 1459.94 815.483 C 1634.1 763.563 1821.64 781.509 1982.79 865.518 C 2214.03 988.404 2349.22 1240.22 2282.46 1499.12 C 2267.72 1556.29 2246.76 1602.11 2218.95 1653.55 C 2338.67 1667.58 2420.52 1662.54 2529.64 1602.43 C 2616.85 1554.38 2682.72 1485.83 2764.56 1431.23 C 2833.78 1385.39 2910.51 1352.06 2991.25 1332.76 C 3105.12 1305.54 3223.41 1308.5 3336.26 1338.87 C 3355.83 1344.14 3399.41 1356.34 3415.8 1367.65 C 3476.46 1409.53 3383.79 1464.25 3362.94 1499.76 C 3362.5 1500.42 3362.06 1501.09 3361.62 1501.76 C 3380.43 1541.99 3403.55 1578.1 3424.22 1617.16 C 3429.73 1627.58 3431.78 1640.66 3426.84 1651.82 C 3424.8 1656.31 3421.95 1660.39 3418.42 1663.83 C 3388.68 1693.09 3323.47 1661.15 3287.28 1653.41 C 3176.74 1629.76 3071.69 1630.15 2964.62 1671 C 2890.94 1701.96 2851.02 1735.61 2789.06 1782.8 C 2787.21 1786.5 2770.46 1802.07 2765.84 1807 C 2842.18 1771.48 2879.75 1754.98 2960.4 1732.91 C 2967.33 1731.18 2974.3 1729.6 2981.31 1728.18 C 3037.27 1716.46 3097.58 1708.67 3154.75 1710.91 C 3171.67 1711.58 3239.77 1713.83 3250.97 1721.15 C 3310.67 1732.15 3367.11 1747.81 3422.7 1772.44 C 3439.9 1780.07 3471.41 1793.09 3477.33 1812.13 C 3495.23 1856.98 3409.01 1887.06 3400.31 1912.91 C 3389.92 1943.76 3459.33 2020.06 3443.29 2056.32 C 3435.61 2073.68 3409.33 2086.02 3391.2 2080.53 C 3364.41 2072.43 3339.81 2058.08 3313.8 2047.8 C 3247.98 2021.99 3177.09 2003.76 3106.29 2000.24 C 3081.11 1999.17 3055.93 2003.05 3031.18 2006.2 C 2925.44 2019.63 2832.81 2071.44 2733.07 2103.36 C 2623.92 2138.29 2497.3 2141.96 2386.83 2111.71 C 2358.53 2103.96 2328.92 2091.55 2301.42 2080.51 C 2309.98 2102.86 2318.2 2125.34 2326.06 2147.95 C 2379.89 2304.62 2421.73 2481.88 2428.05 2647.57 C 2432.93 2775.58 2341.59 2901.3 2206.5 2835.74 C 2202.91 2834 2197.87 2831.31 2194.11 2832.61 C 2194.88 2866.36 2206.3 2932.81 2209.76 2969.38 C 2215.61 3031.16 2224.41 3095.95 2230.58 3157.98 C 2233.18 3184.09 2259.84 3206.83 2253.49 3238.25 C 2250.11 3255 2241.41 3272.2 2226.41 3281.47 C 2170.33 3316.13 2057.75 3302.98 1994.73 3292.59 C 1981.39 3290.39 1946.77 3280.97 1937.72 3273.54 C 1916.4 3256.03 1894.93 3222.32 1878.43 3199.74 C 1827.75 3130.22 1778.85 3059.41 1731.81 2987.38 C 1704.78 2946.22 1679.21 2904.5 1651.78 2863.55 C 1636.64 2864.18 1619.2 2862.57 1603.9 2861.57 C 1596.72 2880.04 1588.61 2925.15 1584.2 2946.8 C 1570.96 3013.58 1556.87 3080.19 1541.93 3146.61 C 1534.99 3177.81 1529.73 3212.01 1518.75 3242.05 C 1515.07 3252.12 1510.75 3262.44 1502.08 3269.19 C 1459.57 3302.31 1264.01 3305.27 1207.05 3297.1 C 1183.95 3293.78 1161.37 3288.35 1147.08 3268.18 C 1137.83 3255.13 1133.85 3238.56 1137.03 3222.82 C 1144.89 3183.97 1186.82 3158.96 1217.15 3138.63 C 1210.73 3117.53 1202.24 3095.81 1195.55 3074.11 C 1178.24 3016.16 1162.15 2957.86 1147.29 2899.23 C 1125.94 2814.95 1109.56 2728.92 1092.37 2643.63 C 1000.75 2669.16 949.642 2626.08 964.686 2531.57 C 957.827 2524.9 950.267 2518.73 942.856 2512.62 C 853.691 2439.6 740.482 2326.81 775.206 2199.89 C 793.72 2132.21 865.611 2066.22 919.837 2023.18 C 977.79 1977.18 1045.86 1930.85 1110.25 1894.53 C 1114.62 1878.9 1117.37 1865.64 1126.87 1852.3 C 1099.96 1802.07 1092.25 1755.75 1139.8 1713.61 z"/>
<path transform="translate(0,0)" fill="rgb(37,6,4)" d="M 2960.4 1732.91 C 2967.33 1731.18 2974.3 1729.6 2981.31 1728.18 C 3037.27 1716.46 3097.58 1708.67 3154.75 1710.91 C 3171.67 1711.58 3239.77 1713.83 3250.97 1721.15 L 3247.43 1721.06 C 3230.73 1720.57 3211.41 1717.54 3194.55 1715.93 C 3053.47 1702.45 2911.85 1743.02 2785.07 1802.29 C 2720.49 1832.48 2657.31 1867.7 2586.97 1882.15 C 2579.1 1883.77 2563.09 1888.74 2556.64 1883.16 C 2629.72 1872.79 2727.64 1822.22 2789.06 1782.8 C 2787.21 1786.5 2770.46 1802.07 2765.84 1807 C 2842.18 1771.48 2879.75 1754.98 2960.4 1732.91 z"/>
<path transform="translate(0,0)" fill="url(#Gradient5)" d="M 1204.45 1720.91 C 1203.48 1715.57 1153.58 1657.32 1143.76 1641.3 C 1074.5 1528.42 1049.96 1400.17 1076.17 1271.02 C 1104.36 1132.1 1197.8 1006.53 1314.3 929.596 C 1417.64 861.353 1545.8 825.759 1668.8 829.027 C 1700.34 829.865 1728.74 829.728 1760.15 836.492 C 1864.47 854.351 1954.16 888.717 2038.58 953.484 C 2052.28 963.987 2075.98 982.549 2086.95 995.187 C 2266.56 1155.08 2305.67 1432.25 2176.71 1633.65 C 2172.2 1640.7 2144.13 1683.52 2143.5 1687.06 C 2150.39 1693.44 2152.49 1693.95 2161.21 1698.07 C 2153.74 1698.71 2140.77 1698.83 2134.95 1702.02 L 2137.5 1703.36 C 2152.7 1713.16 2161.18 1721.07 2165.81 1738.93 C 2171.62 1761.32 2149.32 1777.64 2176.36 1785.34 L 2164.77 1786.47 L 2163.84 1787.8 C 2172.84 1791.62 2179.2 1793.08 2185.26 1800.62 C 2176.12 1797.34 2167.7 1793.16 2158.38 1794.27 L 2155.43 1796.48 C 2154.41 1806.17 2171.12 1822.33 2174.32 1831.93 C 2175.87 1836.59 2176.77 1846.78 2177.28 1851.87 C 2174.1 1867.75 2172.31 1872.64 2162.24 1886.13 L 2159.43 1889.52 C 2172.65 1907.92 2194.22 1938.95 2204.21 1959.14 L 2202.75 1962.26 C 2206.74 1966.75 2210.24 1970.49 2214.45 1974.76 C 2211.25 1975.69 2209.8 1975.35 2206.34 1975.38 L 2203.98 1977.57 L 2206.95 1982.89 L 2201.32 1983.24 C 2219.35 2021.11 2233.74 2063.36 2248.08 2102.98 C 2249.98 2102.1 2251.62 2100.62 2253.37 2099.3 C 2254.14 2090.83 2250.75 2083.58 2251.21 2073.21 C 2307.65 2199.4 2375.92 2492.28 2381.71 2627.23 C 2383.17 2655.38 2381.16 2683.61 2375.71 2711.27 C 2372.82 2721.49 2364.07 2751.61 2356.44 2758.4 C 2330.5 2806.92 2277.31 2826.46 2228.17 2797.86 C 2180.3 2769.99 2155.29 2725.42 2129.32 2678.64 C 2130.39 2721.75 2140.02 2787.18 2145.43 2830.66 C 2155.69 2910.62 2164.88 2990.72 2173.02 3070.92 C 2174.59 3086.96 2183.19 3157.2 2182.22 3169.86 C 2188.07 3193 2206.58 3212.44 2204.94 3234.98 C 2204.6 3239.68 2195.31 3248.68 2190.7 3250.11 C 2127.99 3269.59 2025.86 3258.92 1964.75 3238.16 C 1938.03 3206.7 1899.53 3150 1875.29 3115.45 C 1844.53 3071.62 1802.14 3013.69 1775.73 2968.28 C 1754.6 2936.93 1733.9 2905.29 1713.64 2873.37 C 1704.3 2858.85 1688.18 2831.38 1676.73 2819.98 C 1644.28 2820.02 1596.93 2816.92 1564.87 2812.14 C 1541 2938.96 1511.99 3063.8 1485.24 3190.02 C 1482.14 3204.64 1478.03 3228.29 1469.54 3240.39 C 1455.58 3248.12 1374.86 3254.44 1355.29 3254.57 C 1314.45 3257.68 1273.44 3257.8 1232.59 3254.95 C 1199.11 3252.81 1155.98 3245.54 1199.18 3207.48 C 1210.89 3193.54 1249.64 3167.69 1266.8 3155.58 C 1260.09 3127.16 1249.81 3098.15 1242.26 3069.4 C 1239.75 3064.31 1224.74 3006.27 1221.82 2996.06 C 1191.43 2886.06 1165.21 2774.94 1143.23 2662.95 C 1137.8 2635.4 1136.01 2601.17 1130.05 2575.02 C 1109.55 2588.19 1063.02 2614.9 1038.27 2610.88 C 1028.72 2609.41 1020.29 2603.84 1015.18 2595.64 C 1000.14 2571.98 1008.82 2537.45 1014.46 2512.17 C 957.334 2466.59 909.161 2431.35 864.669 2371.38 C 833.326 2335.74 800.892 2253.06 820.514 2207.58 C 869.469 2094.11 1048.69 1975.36 1152.9 1921.99 C 1153.95 1910.45 1154.86 1906.76 1157.76 1895.85 C 1158.2 1903.5 1158.55 1909.32 1158.29 1916.95 L 1158.47 1917.27 C 1160.21 1913.37 1158.91 1915.1 1162.59 1912.24 L 1164.4 1916.39 C 1168.46 1914.92 1166.74 1916.16 1169.44 1912.49 C 1172.6 1892.59 1181.21 1877.34 1191.09 1860.18 C 1199.7 1840.79 1181.3 1829.46 1172.47 1810.98 L 1171.55 1809.01 C 1155.39 1772.35 1180.14 1749.49 1211.43 1734.67 C 1208.61 1729.89 1206.8 1727.14 1203.57 1722.62 L 1204.45 1720.91 z"/>
<path transform="translate(0,0)" fill="url(#Gradient4)" d="M 1204.45 1720.91 C 1203.48 1715.57 1153.58 1657.32 1143.76 1641.3 C 1074.5 1528.42 1049.96 1400.17 1076.17 1271.02 C 1104.36 1132.1 1197.8 1006.53 1314.3 929.596 C 1417.64 861.353 1545.8 825.759 1668.8 829.027 C 1700.34 829.865 1728.74 829.728 1760.15 836.492 C 1864.47 854.351 1954.16 888.717 2038.58 953.484 C 2052.28 963.987 2075.98 982.549 2086.95 995.187 C 2266.56 1155.08 2305.67 1432.25 2176.71 1633.65 C 2172.2 1640.7 2144.13 1683.52 2143.5 1687.06 C 2150.39 1693.44 2152.49 1693.95 2161.21 1698.07 C 2153.74 1698.71 2140.77 1698.83 2134.95 1702.02 L 2137.5 1703.36 C 2138.27 1712.27 2139.05 1708.92 2135.51 1716.94 C 2122.3 1713.59 2118.75 1719.4 2108.24 1727.37 C 2048.15 1753.28 1947.42 1770.27 1883 1778.27 C 1709.99 1800.92 1534.93 1803.37 1361.35 1785.57 C 1330.32 1782.15 1290.91 1778.83 1261.08 1770.09 C 1243.69 1764.99 1229.16 1733.73 1211.43 1734.67 C 1208.61 1729.89 1206.8 1727.14 1203.57 1722.62 L 1204.45 1720.91 z"/>
<path transform="translate(0,0)" fill="rgb(32,19,62)" d="M 1204.45 1720.91 C 1203.48 1715.57 1153.58 1657.32 1143.76 1641.3 C 1074.5 1528.42 1049.96 1400.17 1076.17 1271.02 C 1104.36 1132.1 1197.8 1006.53 1314.3 929.596 C 1417.64 861.353 1545.8 825.759 1668.8 829.027 C 1700.34 829.865 1728.74 829.728 1760.15 836.492 C 1864.47 854.351 1954.16 888.717 2038.58 953.484 C 2052.28 963.987 2075.98 982.549 2086.95 995.187 L 2086.15 999.231 L 2087.99 1000.94 C 2102.59 1014.71 2127.48 1050.09 2141.02 1066.02 C 2164.61 1093.78 2225.16 1203.27 2221.4 1236.77 C 2216.46 1225.27 2211.61 1209.77 2206.38 1197.06 C 2171.35 1114.19 2116.55 1041.17 2046.79 984.362 C 2039.68 978.486 2033.22 971.999 2025.94 966.366 C 2017.46 959.794 1994.73 950.902 1987.05 944.999 C 1966.11 928.913 1943.27 913.486 1918.58 903.34 C 1888.06 890.672 1856.81 879.849 1824.99 870.931 C 1814.12 867.875 1789.88 864.13 1782.17 860.512 C 1781.56 860.789 1780.94 861.067 1780.32 861.345 C 1745.75 856.464 1711.59 848.604 1676.03 850.405 C 1624.76 853 1572.76 852.836 1522.03 861.148 C 1510.35 863.077 1482 876.496 1468.4 880.81 C 1449.56 886.787 1420.06 894.081 1402.46 902.12 C 1304.88 946.674 1235.94 1007.61 1173.24 1093.82 C 1161.43 1110.05 1139.41 1151.18 1127.61 1169.99 C 1120.92 1180.66 1111.8 1217.64 1102.64 1230.57 C 1098.04 1246.89 1089.05 1275.66 1086.56 1291.82 C 1069.5 1402.1 1088.67 1509.69 1141.42 1607.62 C 1162.85 1647.39 1203.45 1695.21 1233.23 1728.93 C 1216.46 1727.78 1215.86 1718.78 1204.45 1720.91 z"/>
<path transform="translate(0,0)" fill="rgb(63,54,113)" d="M 1611.82 842.152 C 1651.76 841.207 1750.42 839.915 1787.96 854.044 L 1784.27 855.469 L 1782.17 860.512 C 1781.56 860.789 1780.94 861.067 1780.32 861.345 C 1745.75 856.464 1711.59 848.604 1676.03 850.405 C 1624.76 853 1572.76 852.836 1522.03 861.148 C 1510.35 863.077 1482 876.496 1468.4 880.81 C 1449.56 886.787 1420.06 894.081 1402.46 902.12 C 1304.88 946.674 1235.94 1007.61 1173.24 1093.82 C 1161.43 1110.05 1139.41 1151.18 1127.61 1169.99 C 1120.92 1180.66 1111.8 1217.64 1102.64 1230.57 C 1113.11 1171.25 1167.59 1088.6 1206.5 1042.29 C 1311.84 916.921 1452.39 857.871 1611.82 842.152 z"/>
<path transform="translate(0,0)" fill="rgb(19,9,31)" d="M 2221.4 1236.77 C 2225.16 1203.27 2164.61 1093.78 2141.02 1066.02 C 2127.48 1050.09 2102.59 1014.71 2087.99 1000.94 L 2086.15 999.231 L 2086.95 995.187 C 2266.56 1155.08 2305.67 1432.25 2176.71 1633.65 C 2172.2 1640.7 2144.13 1683.52 2143.5 1687.06 C 2150.39 1693.44 2152.49 1693.95 2161.21 1698.07 C 2153.74 1698.71 2140.77 1698.83 2134.95 1702.02 L 2137.5 1703.36 C 2138.27 1712.27 2139.05 1708.92 2135.51 1716.94 C 2122.3 1713.59 2118.75 1719.4 2108.24 1727.37 C 2048.15 1753.28 1947.42 1770.27 1883 1778.27 C 1709.99 1800.92 1534.93 1803.37 1361.35 1785.57 C 1330.32 1782.15 1290.91 1778.83 1261.08 1770.09 C 1243.69 1764.99 1229.16 1733.73 1211.43 1734.67 C 1208.61 1729.89 1206.8 1727.14 1203.57 1722.62 L 1204.45 1720.91 C 1215.86 1718.78 1216.46 1727.78 1233.23 1728.93 C 1236.37 1732.06 1256.29 1751.97 1258.25 1752.87 C 1280.75 1763.17 1325.41 1768.61 1350.03 1771.41 C 1568.99 1796.28 1797.68 1784.86 2013.44 1741.26 C 2093.34 1725.11 2112.59 1709.69 2156.56 1639.53 C 2214.44 1547.2 2244.55 1443.43 2237.95 1333.98 C 2235.99 1301.5 2228.59 1268.48 2221.4 1236.77 z"/>
<path transform="translate(0,0)" fill="rgb(244,243,241)" d="M 1134.9 1353.26 L 1132.91 1354.19 C 1133.99 1341.83 1129.07 1321.89 1132.71 1311.81 C 1136.74 1300.64 1139.36 1294.65 1140.23 1282.11 L 1143.37 1286.03 C 1146.4 1281.82 1144.5 1281.54 1148.46 1276.58 L 1150.34 1278.47 L 1147.41 1282.48 L 1148.72 1285.43 C 1147.05 1286.29 1169.85 1258.42 1170.4 1257.59 C 1179.31 1244.21 1222.17 1232.48 1226.86 1225.2 C 1254.71 1218.29 1341.58 1226.57 1373.41 1228.52 C 1429.07 1231.92 1484.33 1232.52 1540.48 1232.44 C 1560.48 1232.41 1626.72 1222.71 1639.9 1229.96 C 1653.38 1227.88 1676.24 1224.01 1688.08 1223.19 C 1708.64 1221.77 1721.92 1229.91 1739.42 1219.24 C 1740.68 1218.47 1788.19 1219.69 1790.13 1220.16 L 1789.82 1222.16 C 1784.98 1222.66 1780.28 1223.08 1775.47 1223.88 C 1782.33 1223.94 1790.38 1224.43 1796.65 1221.55 C 1819.97 1210.83 1838.04 1217.17 1861.45 1220.01 C 1855.73 1220.11 1851.63 1220.22 1845.96 1220.83 C 1864.24 1228.35 1899.2 1227.46 1919.06 1243.56 C 1931.36 1253.53 1939.65 1255.71 1948.69 1270.74 L 1945.56 1272.28 C 1971.37 1314.44 1974.18 1362.65 1962.92 1410.29 C 1954.2 1447.18 1935.8 1472.72 1903.3 1492.5 C 1816 1545.63 1470 1540.96 1361.02 1532.76 C 1323.97 1529.97 1286.07 1525.5 1249.94 1516.67 C 1211.98 1507.39 1176.57 1489.48 1155.78 1455 C 1137.1 1424.01 1133.44 1388.69 1134.9 1353.26 z"/>
<path transform="translate(0,0)" fill="rgb(63,54,113)" d="M 1134.9 1353.26 L 1132.91 1354.19 C 1133.99 1341.83 1129.07 1321.89 1132.71 1311.81 C 1136.74 1300.64 1139.36 1294.65 1140.23 1282.11 L 1143.37 1286.03 C 1146.4 1281.82 1144.5 1281.54 1148.46 1276.58 L 1150.34 1278.47 L 1147.41 1282.48 L 1148.72 1285.43 C 1147.05 1286.29 1169.85 1258.42 1170.4 1257.59 C 1179.31 1244.21 1222.17 1232.48 1226.86 1225.2 C 1254.71 1218.29 1341.58 1226.57 1373.41 1228.52 C 1429.07 1231.92 1484.33 1232.52 1540.48 1232.44 C 1560.48 1232.41 1626.72 1222.71 1639.9 1229.96 C 1653.38 1227.88 1676.24 1224.01 1688.08 1223.19 C 1708.64 1221.77 1721.92 1229.91 1739.42 1219.24 C 1740.68 1218.47 1788.19 1219.69 1790.13 1220.16 L 1789.82 1222.16 C 1784.98 1222.66 1780.28 1223.08 1775.47 1223.88 C 1782.33 1223.94 1790.38 1224.43 1796.65 1221.55 C 1819.97 1210.83 1838.04 1217.17 1861.45 1220.01 C 1855.73 1220.11 1851.63 1220.22 1845.96 1220.83 C 1864.24 1228.35 1899.2 1227.46 1919.06 1243.56 C 1931.36 1253.53 1939.65 1255.71 1948.69 1270.74 L 1945.56 1272.28 C 1916.81 1241.82 1885.27 1227.94 1843.51 1227.31 C 1800.26 1226.66 1755.67 1231.04 1712.41 1233.94 C 1650.88 1238.53 1589.21 1241.09 1527.51 1241.61 C 1478.13 1241.96 1427.29 1241.49 1377.78 1239.82 C 1284.64 1236.66 1169.46 1200.96 1139.14 1323.02 C 1136.58 1333.33 1135.12 1342.66 1134.9 1353.26 z"/>
<path transform="translate(0,0)" fill="rgb(32,19,62)" d="M 1254.54 1503.91 C 1177.23 1486.66 1148.73 1442.54 1149.65 1365 C 1150.43 1299.95 1179.07 1245.86 1252.16 1246.07 C 1277.94 1246.37 1303.81 1247.97 1329.78 1249.33 C 1372.36 1251.8 1414.98 1253.3 1457.62 1253.85 C 1567.98 1254.92 1677.37 1249.42 1787.76 1242.28 C 1837.57 1239.06 1909.61 1236.15 1939.16 1287.47 C 1959.32 1322.48 1958.56 1376.7 1948.5 1414.58 C 1934.1 1468.25 1888.24 1492.88 1837.02 1502.71 C 1779.43 1513.76 1720.95 1518.58 1662.41 1521.77 C 1576.8 1527.07 1490.96 1527.75 1405.28 1523.83 C 1388.24 1523.01 1340.42 1520.7 1324.3 1516.98 C 1307.77 1517.04 1270.83 1507.97 1254.54 1503.91 z"/>
<path transform="translate(0,0)" fill="rgb(19,15,54)" d="M 1254.54 1503.91 C 1268.92 1499.47 1285.14 1498.37 1298.26 1506.22 C 1313.94 1515.61 1319.82 1511.04 1338.92 1515.23 C 1335.35 1516.7 1328.55 1516.69 1324.3 1516.98 C 1307.77 1517.04 1270.83 1507.97 1254.54 1503.91 z"/>
<path transform="translate(0,0)" fill="rgb(244,243,241)" d="M 1625.54 1375.73 L 1625.08 1373.15 C 1637.19 1363.42 1661.11 1363.37 1673.53 1356.35 C 1681.06 1352.1 1701.76 1347.76 1705.3 1345.52 C 1699.86 1343.76 1683.43 1349.44 1677.34 1351.31 L 1675.99 1349.89 C 1694.65 1337.37 1763.53 1324.89 1787.44 1317.44 C 1790.74 1316.41 1798.06 1318.25 1801.4 1319.13 L 1799.94 1321.35 C 1804.76 1325.42 1804.76 1324.96 1806.69 1330.88 C 1803.72 1339.52 1799.35 1340.6 1791.1 1343.34 L 1792.54 1346.01 C 1783.29 1350.35 1767.73 1353.51 1757.29 1356.27 C 1757.43 1372.11 1756.09 1387.54 1754.86 1403.31 C 1753.63 1418.92 1753.26 1440.72 1733.96 1445.23 C 1681.57 1473.76 1671.23 1421.4 1664.42 1381.82 C 1653.88 1385.1 1630.49 1394.9 1622.16 1386.76 C 1622.02 1380.47 1621.94 1380.91 1625.54 1375.73 z"/>
<path transform="translate(0,0)" fill="rgb(19,15,54)" d="M 1625.54 1375.73 L 1625.08 1373.15 C 1637.19 1363.42 1661.11 1363.37 1673.53 1356.35 C 1681.06 1352.1 1701.76 1347.76 1705.3 1345.52 C 1699.86 1343.76 1683.43 1349.44 1677.34 1351.31 L 1675.99 1349.89 C 1694.65 1337.37 1763.53 1324.89 1787.44 1317.44 C 1790.74 1316.41 1798.06 1318.25 1801.4 1319.13 L 1799.94 1321.35 C 1740.35 1338.18 1684.31 1357.5 1625.54 1375.73 z"/>
<path transform="translate(0,0)" fill="rgb(19,15,54)" d="M 1751.5 1352.94 C 1762.44 1351.14 1779.85 1346.2 1791.1 1343.34 L 1792.54 1346.01 C 1783.29 1350.35 1767.73 1353.51 1757.29 1356.27 C 1757.43 1372.11 1756.09 1387.54 1754.86 1403.31 C 1753.63 1418.92 1753.26 1440.72 1733.96 1445.23 C 1752.3 1410.56 1753.3 1392.2 1751.5 1352.94 z"/>
<path transform="translate(0,0)" fill="rgb(244,243,241)" d="M 1253.3 1322.18 C 1262.03 1322.77 1423 1376.1 1429.02 1380.8 C 1430.32 1387.3 1429.16 1390.43 1423.38 1392.85 C 1411.92 1392.06 1399.15 1385.02 1388.8 1379.75 L 1385.17 1402 C 1370.02 1500.58 1285.87 1446.6 1304.53 1356.11 C 1287.25 1350.76 1265.44 1347.63 1252.48 1335.86 C 1249.97 1328.82 1250.82 1330.91 1253.3 1322.18 z"/>
<path transform="translate(0,0)" fill="rgb(244,243,241)" d="M 1621.6 1589.46 C 1626.28 1591.32 1625.91 1591.32 1628.93 1595.43 L 1628.06 1599.17 C 1594.57 1637.64 1506.54 1643.74 1459.25 1630.74 C 1455.3 1629.08 1456.7 1629.76 1453.51 1626.39 L 1453.69 1623.11 C 1462.61 1618.65 1486.85 1626.05 1498.21 1626.75 C 1545.29 1629.66 1580.84 1612.09 1621.6 1589.46 z"/>
<path transform="translate(0,0)" fill="rgb(230,157,97)" d="M 2137.5 1703.36 C 2152.7 1713.16 2161.18 1721.07 2165.81 1738.93 C 2171.62 1761.32 2149.32 1777.64 2176.36 1785.34 L 2164.77 1786.47 L 2163.84 1787.8 C 2172.84 1791.62 2179.2 1793.08 2185.26 1800.62 C 2176.12 1797.34 2167.7 1793.16 2158.38 1794.27 L 2155.43 1796.48 C 2154.41 1806.17 2171.12 1822.33 2174.32 1831.93 C 2175.87 1836.59 2176.77 1846.78 2177.28 1851.87 C 2174.1 1867.75 2172.31 1872.64 2162.24 1886.13 L 2159.43 1889.52 C 2156.27 1887.86 2154.34 1887.08 2151.05 1885.71 L 2149.46 1879.39 C 2030.68 1971.7 1824.32 2031.14 1675.99 2049.81 C 1613.81 2057.64 1562.9 2058.34 1500.61 2057.25 C 1423.08 2051.01 1362.83 2042.54 1289.47 2012.79 C 1274.31 2006.64 1251.91 1997.94 1239.02 1988.82 L 1236.94 1988.08 C 1205.6 1974.06 1167.77 1950.79 1169.44 1912.49 C 1172.6 1892.59 1181.21 1877.34 1191.09 1860.18 C 1199.7 1840.79 1181.3 1829.46 1172.47 1810.98 L 1171.55 1809.01 C 1155.39 1772.35 1180.14 1749.49 1211.43 1734.67 C 1229.16 1733.73 1243.69 1764.99 1261.08 1770.09 C 1290.91 1778.83 1330.32 1782.15 1361.35 1785.57 C 1534.93 1803.37 1709.99 1800.92 1883 1778.27 C 1947.42 1770.27 2048.15 1753.28 2108.24 1727.37 C 2118.75 1719.4 2122.3 1713.59 2135.51 1716.94 C 2139.05 1708.92 2138.27 1712.27 2137.5 1703.36 z"/>
<path transform="translate(0,0)" fill="rgb(214,130,75)" d="M 1239.02 1988.82 L 1242.51 1980.9 C 1254.1 1980.66 1283.44 1991.94 1297.07 1994.71 C 1563.93 2048.95 1842.7 1974.22 2087.39 1867.73 C 2100.21 1862.16 2148.12 1830.16 2153.56 1831 L 2157.13 1838.1 L 2159.83 1837.8 C 2164.71 1853.24 2158.66 1866.92 2149.46 1879.39 C 2030.68 1971.7 1824.32 2031.14 1675.99 2049.81 C 1613.81 2057.64 1562.9 2058.34 1500.61 2057.25 C 1423.08 2051.01 1362.83 2042.54 1289.47 2012.79 C 1274.31 2006.64 1251.91 1997.94 1239.02 1988.82 z"/>
<path transform="translate(0,0)" fill="rgb(220,159,123)" d="M 2108.24 1727.37 C 2104.06 1742.91 2035.27 1751.38 2019.58 1760.17 C 2018.51 1760.77 1984.11 1765.42 1980.2 1766.09 C 1940.3 1773.36 1900.29 1780.01 1860.18 1786.02 C 1840.39 1788.87 1821 1790.27 1800.91 1793.2 L 1809.99 1793.21 C 1770.93 1799.34 1737.1 1800.97 1697.42 1800.83 C 1719.32 1799.51 1746.12 1798.54 1767.31 1795.53 C 1703.76 1799.4 1640.13 1801.76 1576.47 1802.59 C 1546.54 1802.71 1515.87 1800.63 1485.93 1800.22 C 1458.58 1799.84 1443.04 1804.61 1415.24 1798.75 L 1458.8 1799.5 C 1392.3 1793.16 1326.05 1785.25 1259.67 1781.36 C 1232.02 1779.74 1209.43 1723.29 1191.59 1754.16 C 1195.3 1760.6 1195.04 1750.72 1196.71 1761.01 C 1189.37 1778.77 1181.44 1778.5 1186.01 1793.86 L 1184.05 1796.94 C 1179.8 1789.69 1177.49 1786.91 1175.97 1778.85 C 1180.87 1769.52 1188.08 1775.1 1187.46 1760.83 L 1185.13 1757.02 C 1165.27 1764.49 1178.12 1799.28 1171.55 1809.01 C 1155.39 1772.35 1180.14 1749.49 1211.43 1734.67 C 1229.16 1733.73 1243.69 1764.99 1261.08 1770.09 C 1290.91 1778.83 1330.32 1782.15 1361.35 1785.57 C 1534.93 1803.37 1709.99 1800.92 1883 1778.27 C 1947.42 1770.27 2048.15 1753.28 2108.24 1727.37 z"/>
<path transform="translate(0,0)" fill="rgb(64,14,11)" d="M 2137.5 1703.36 C 2152.7 1713.16 2161.18 1721.07 2165.81 1738.93 C 2171.62 1761.32 2149.32 1777.64 2176.36 1785.34 L 2164.77 1786.47 L 2163.84 1787.8 C 2172.84 1791.62 2179.2 1793.08 2185.26 1800.62 C 2176.12 1797.34 2167.7 1793.16 2158.38 1794.27 L 2155.43 1796.48 C 2154.41 1806.17 2171.12 1822.33 2174.32 1831.93 C 2175.87 1836.59 2176.77 1846.78 2177.28 1851.87 C 2174.1 1867.75 2172.31 1872.64 2162.24 1886.13 L 2159.43 1889.52 C 2156.27 1887.86 2154.34 1887.08 2151.05 1885.71 L 2149.46 1879.39 C 2158.66 1866.92 2164.71 1853.24 2159.83 1837.8 C 2155.91 1820.87 2147.14 1812.89 2135.69 1800.33 C 2150.08 1769.94 2162.66 1744.94 2136.5 1718.49 C 2136.17 1717.97 2135.84 1717.45 2135.51 1716.94 C 2139.05 1708.92 2138.27 1712.27 2137.5 1703.36 z"/>
<path transform="translate(0,0)" fill="rgb(220,159,123)" d="M 1169.44 1912.49 C 1172.6 1892.59 1181.21 1877.34 1191.09 1860.18 C 1197.58 1863.92 1202.92 1866.97 1209.64 1870.25 L 1199.92 1867.85 C 1198.9 1895.82 1166.75 1914.04 1197.95 1946.49 C 1205.39 1954.23 1212.67 1960.15 1221.84 1965.97 C 1239.09 1976.86 1233.44 1972.95 1236.94 1988.08 C 1205.6 1974.06 1167.77 1950.79 1169.44 1912.49 z"/>
<path transform="translate(0,0)" fill="rgb(214,130,75)" d="M 2121.6 1792.1 L 2125.59 1793.55 C 2123.84 1795.57 2122.03 1797.24 2120 1798.96 C 2123.56 1802.54 2126.37 1805.49 2129.73 1809.25 C 2120.39 1821.6 2095.99 1830.91 2081.66 1837.32 C 1997.48 1874.93 1887.71 1899.38 1795.86 1902.08 C 1789.85 1902.15 1787.47 1902.39 1783.13 1899.16 C 1791.53 1892.25 1915.54 1877.2 1940.33 1866.54 C 1988.37 1845.89 2079.47 1823.75 2121.6 1792.1 z"/>
<path transform="translate(0,0)" fill="url(#Gradient3)" d="M 1157.76 1895.85 C 1158.2 1903.5 1158.55 1909.32 1158.29 1916.95 L 1158.47 1917.27 C 1160.21 1913.37 1158.91 1915.1 1162.59 1912.24 L 1164.4 1916.39 C 1168.46 1914.92 1166.74 1916.16 1169.44 1912.49 C 1167.77 1950.79 1205.6 1974.06 1236.94 1988.08 L 1239.02 1988.82 C 1251.91 1997.94 1274.31 2006.64 1289.47 2012.79 C 1362.83 2042.54 1423.08 2051.01 1500.61 2057.25 C 1496.07 2064.75 1493.39 2067.06 1484.52 2069.29 C 1405.74 2066.16 1295.87 2039.1 1226.98 1999.54 C 1220.56 2007.37 1216.52 2030.91 1214.55 2041.67 C 1195.8 2143.88 1172 2245.06 1156.33 2347.82 C 1154.83 2357.63 1152.68 2369.6 1150.23 2379.12 C 1149.85 2373.77 1150.66 2368.75 1147.8 2365.88 C 1140.28 2379.95 1142.56 2399.55 1132.21 2410.62 C 1124.47 2457.04 1124.98 2507.37 1127.09 2554.16 C 1127.29 2558.43 1126.08 2559.82 1123.46 2562.49 C 1130.8 2565.72 1131.17 2566.25 1130.05 2575.02 C 1109.55 2588.19 1063.02 2614.9 1038.27 2610.88 C 1028.72 2609.41 1020.29 2603.84 1015.18 2595.64 C 1000.14 2571.98 1008.82 2537.45 1014.46 2512.17 C 957.334 2466.59 909.161 2431.35 864.669 2371.38 C 833.326 2335.74 800.892 2253.06 820.514 2207.58 C 869.469 2094.11 1048.69 1975.36 1152.9 1921.99 C 1153.95 1910.45 1154.86 1906.76 1157.76 1895.85 z"/>
<path transform="translate(0,0)" fill="rgb(63,54,113)" d="M 1065.23 1988.09 C 1079.39 1976.37 1136.52 1944.2 1154.75 1933.75 C 1168.75 1953.06 1177.7 1960.93 1195.8 1976.99 C 1198.67 1977.73 1225.33 1997.4 1226.98 1999.54 C 1220.56 2007.37 1216.52 2030.91 1214.55 2041.67 C 1195.8 2143.88 1172 2245.06 1156.33 2347.82 C 1154.83 2357.63 1152.68 2369.6 1150.23 2379.12 C 1149.85 2373.77 1150.66 2368.75 1147.8 2365.88 C 1140.28 2379.95 1142.56 2399.55 1132.21 2410.62 C 1132.91 2390.42 1138.57 2355.9 1141.61 2335.59 C 1108.64 2293.49 1079.91 2245.8 1041.71 2208.01 C 1032.46 2198.86 1022.9 2192.73 1017.07 2180.73 C 1024.55 2172.43 1030.37 2174.04 1040.68 2173.87 C 1088.52 2125.07 1124.1 2055.17 1099.59 1986.57 C 1091.34 1968.22 1081.77 1984.22 1065.23 1988.09 z"/>
<path transform="translate(0,0)" fill="rgb(32,19,62)" d="M 1195.8 1976.99 C 1198.67 1977.73 1225.33 1997.4 1226.98 1999.54 C 1220.56 2007.37 1216.52 2030.91 1214.55 2041.67 C 1195.8 2143.88 1172 2245.06 1156.33 2347.82 C 1154.83 2357.63 1152.68 2369.6 1150.23 2379.12 C 1149.85 2373.77 1150.66 2368.75 1147.8 2365.88 C 1140.28 2379.95 1142.56 2399.55 1132.21 2410.62 C 1132.91 2390.42 1138.57 2355.9 1141.61 2335.59 C 1108.64 2293.49 1079.91 2245.8 1041.71 2208.01 C 1032.46 2198.86 1022.9 2192.73 1017.07 2180.73 C 1044.43 2173.18 1090.09 2241.72 1110.25 2263.03 C 1125.06 2255.47 1144.06 2243.27 1158.53 2234.51 C 1170.55 2200.85 1180.5 2140.27 1187.21 2105.14 C 1194.21 2068.45 1202.42 2028.37 1208.3 1991.7 C 1203.21 1986.23 1200.23 1982.96 1195.8 1976.99 z"/>
<path transform="translate(0,0)" fill="rgb(244,243,241)" d="M 1155.92 2247.85 L 1157.98 2249.34 C 1159.83 2254.16 1147.85 2308.41 1145.99 2318.58 C 1139.93 2312.81 1136.92 2308.49 1131.98 2301.93 C 1124.85 2292.59 1120.68 2284.27 1115.12 2273.96 C 1129.74 2265.26 1141.85 2257.45 1155.92 2247.85 z"/>
<path transform="translate(0,0)" fill="rgb(19,9,31)" d="M 1157.76 1895.85 C 1158.2 1903.5 1158.55 1909.32 1158.29 1916.95 L 1158.47 1917.27 C 1160.21 1913.37 1158.91 1915.1 1162.59 1912.24 L 1164.4 1916.39 C 1168.46 1914.92 1166.74 1916.16 1169.44 1912.49 C 1167.77 1950.79 1205.6 1974.06 1236.94 1988.08 L 1239.02 1988.82 C 1251.91 1997.94 1274.31 2006.64 1289.47 2012.79 C 1362.83 2042.54 1423.08 2051.01 1500.61 2057.25 C 1496.07 2064.75 1493.39 2067.06 1484.52 2069.29 C 1405.74 2066.16 1295.87 2039.1 1226.98 1999.54 C 1225.33 1997.4 1198.67 1977.73 1195.8 1976.99 C 1177.7 1960.93 1168.75 1953.06 1154.75 1933.75 C 1136.52 1944.2 1079.39 1976.37 1065.23 1988.09 C 1052.72 1995.43 1012.79 2023.14 1001.17 2032.91 C 978.78 2046.24 958.495 2065.3 938.948 2082.26 C 819.809 2185.61 794.411 2248.79 889.095 2379.98 L 885.672 2383.97 C 878.366 2382.35 874.258 2374.96 864.669 2371.38 C 833.326 2335.74 800.892 2253.06 820.514 2207.58 C 869.469 2094.11 1048.69 1975.36 1152.9 1921.99 C 1153.95 1910.45 1154.86 1906.76 1157.76 1895.85 z"/>
<path transform="translate(0,0)" fill="rgb(32,19,62)" d="M 864.669 2371.38 C 874.258 2374.96 878.366 2382.35 885.672 2383.97 L 889.095 2379.98 C 917.984 2412.45 938.143 2433.31 972.74 2460.49 C 987.446 2472.05 1021.23 2496.38 1032.36 2507.45 C 1004.16 2616.89 1043.37 2614.29 1123.46 2562.49 C 1130.8 2565.72 1131.17 2566.25 1130.05 2575.02 C 1109.55 2588.19 1063.02 2614.9 1038.27 2610.88 C 1028.72 2609.41 1020.29 2603.84 1015.18 2595.64 C 1000.14 2571.98 1008.82 2537.45 1014.46 2512.17 C 957.334 2466.59 909.161 2431.35 864.669 2371.38 z"/>
<path transform="translate(0,0)" fill="rgb(96,90,151)" d="M 1065.23 1988.09 C 1081.77 1984.22 1091.34 1968.22 1099.59 1986.57 C 1093.89 1988.31 1094.24 1988.06 1090.28 1992.52 C 1088.85 1997.78 1089.45 1999.71 1086.04 2002 L 1081.92 1998.13 L 1072.06 2003.76 C 1071.55 2009.81 1072.83 2007.44 1073.1 2012.66 C 1064.87 2013.44 1048.77 2010.76 1045.03 2014.82 L 1044.39 2019.36 C 1032.33 2018.8 1030.08 2022.7 1021.45 2031.71 C 1014.28 2033.23 1008.43 2032.9 1001.17 2032.91 C 1012.79 2023.14 1052.72 1995.43 1065.23 1988.09 z"/>
<path transform="translate(0,0)" fill="rgb(19,15,54)" d="M 2162.02 3244.42 C 2211.79 3230.55 2180.24 3218.82 2170.87 3186.31 C 2167.19 3173.55 2165.89 3149.34 2164.36 3135.35 C 2151.36 3006.45 2136.49 2877.75 2119.76 2749.28 C 2117.03 2727.02 2113.26 2653.29 2108.37 2639.34 C 2095.35 2602.17 2075.68 2556.57 2061.28 2518.34 C 2031.7 2438.32 2003.29 2357.89 1976.05 2277.05 C 1967.67 2252 1948.19 2199.54 1945.98 2175.48 C 1949.02 2172.05 1947.15 2173.35 1952.35 2172.57 C 1956.62 2175.08 1959.38 2179.08 1960.77 2183.79 C 1971.01 2218.34 1982.89 2252.24 1994.44 2286.35 C 2032.18 2397.82 2070.62 2509.28 2115.94 2617.95 C 2131.79 2655.95 2153.34 2695.06 2176.75 2728.82 C 2197.78 2756.15 2227.66 2791.94 2264.27 2796.31 C 2331.61 2804.35 2356.75 2736.42 2364.15 2683.11 C 2364.9 2692.75 2365.36 2699.6 2365.19 2709.41 L 2366.57 2708.61 C 2370.78 2706.11 2372.1 2705.73 2374.71 2701.51 L 2375.71 2711.27 C 2372.82 2721.49 2364.07 2751.61 2356.44 2758.4 C 2330.5 2806.92 2277.31 2826.46 2228.17 2797.86 C 2180.3 2769.99 2155.29 2725.42 2129.32 2678.64 C 2130.39 2721.75 2140.02 2787.18 2145.43 2830.66 C 2155.69 2910.62 2164.88 2990.72 2173.02 3070.92 C 2174.59 3086.96 2183.19 3157.2 2182.22 3169.86 C 2167.84 3193.13 2230.36 3222.87 2185.06 3249.06 L 2182.79 3243.38 C 2174.49 3245.26 2170.62 3244.88 2162.02 3244.42 z"/>
<path transform="translate(0,0)" fill="rgb(32,19,62)" d="M 2365.19 2709.41 L 2366.57 2708.61 C 2370.78 2706.11 2372.1 2705.73 2374.71 2701.51 L 2375.71 2711.27 C 2372.82 2721.49 2364.07 2751.61 2356.44 2758.4 L 2354.98 2756.78 C 2358.19 2740.77 2362.31 2724.59 2365.19 2709.41 z"/>
<path transform="translate(0,0)" fill="url(#Gradient2)" d="M 1404.67 2787.19 C 1400.97 2781.41 1399.46 2780.17 1399.85 2773.3 C 1403.31 2768 1401.02 2769.97 1407.23 2767.53 C 1429.09 2770.2 1457.27 2779.16 1480.4 2783.47 C 1554.27 2797.24 1612.47 2806.61 1687.49 2808.69 C 1695.37 2818.75 1698.75 2823.13 1704.98 2834.24 L 1703.21 2832.83 C 1696.96 2827.75 1696.04 2827.35 1691.93 2820.76 C 1687.27 2836.91 1774.74 2935.63 1775.73 2968.28 C 1754.6 2936.93 1733.9 2905.29 1713.64 2873.37 C 1704.3 2858.85 1688.18 2831.38 1676.73 2819.98 C 1644.28 2820.02 1596.93 2816.92 1564.87 2812.14 C 1541 2938.96 1511.99 3063.8 1485.24 3190.02 C 1482.14 3204.64 1478.03 3228.29 1469.54 3240.39 C 1455.58 3248.12 1374.86 3254.44 1355.29 3254.57 C 1345.13 3247.43 1345.35 3256.05 1334.78 3242.72 C 1372.17 3240.41 1410.72 3236.23 1448.07 3232.43 C 1459.57 3230.05 1460.83 3229.39 1463.78 3217.65 C 1472.68 3182.28 1479.68 3144.56 1485.89 3108.67 C 1488.66 3099.38 1490.13 3089.83 1491.87 3080.27 C 1498.86 3065.28 1510.13 2997.93 1515.34 2976.27 C 1520.11 2957.22 1524.09 2932.95 1530.09 2914.81 C 1529.98 2911.57 1530.62 2904.82 1528.41 2903.14 C 1483.46 2869.04 1443.64 2828.09 1404.67 2787.19 z"/>
<path transform="translate(0,0)" fill="rgb(96,90,151)" d="M 1404.67 2787.19 C 1417.95 2786.43 1458.36 2795.34 1473.85 2798.07 C 1499.31 2802.55 1524.86 2806.49 1550.48 2809.88 C 1544.61 2844.72 1538.98 2880.69 1530.09 2914.81 C 1529.98 2911.57 1530.62 2904.82 1528.41 2903.14 C 1483.46 2869.04 1443.64 2828.09 1404.67 2787.19 z"/>
<path transform="translate(0,0)" fill="rgb(47,16,18)" d="M 2149.46 1879.39 L 2151.05 1885.71 C 2154.34 1887.08 2156.27 1887.86 2159.43 1889.52 C 2172.65 1907.92 2194.22 1938.95 2204.21 1959.14 L 2202.75 1962.26 C 2206.74 1966.75 2210.24 1970.49 2214.45 1974.76 C 2211.25 1975.69 2209.8 1975.35 2206.34 1975.38 L 2203.98 1977.57 L 2206.95 1982.89 L 2201.32 1983.24 C 2190.77 1961.8 2183.66 1946.69 2169.49 1927.25 C 2168.56 1926.81 2167.64 1926.36 2166.71 1925.92 C 2153.99 1915 2156.38 1924.71 2139.48 1919.19 C 2138.61 1916.69 2137.87 1914.67 2136.9 1912.17 C 2129.32 1916.11 2127.94 1916.7 2119.46 1917.17 C 2096.69 1929.96 2067.12 1947.47 2044.13 1958.42 C 1901.55 2025.24 1747.21 2063.35 1589.92 2070.58 C 1570.75 2071.44 1501.7 2072.87 1484.52 2069.29 C 1493.39 2067.06 1496.07 2064.75 1500.61 2057.25 C 1562.9 2058.34 1613.81 2057.64 1675.99 2049.81 C 1824.32 2031.14 2030.68 1971.7 2149.46 1879.39 z"/>
<path transform="translate(0,0)" fill="rgb(96,90,151)" d="M 2147.38 1898.76 C 2156.84 1909.57 2161.89 1915.21 2169.49 1927.25 C 2168.56 1926.81 2167.64 1926.36 2166.71 1925.92 C 2153.99 1915 2156.38 1924.71 2139.48 1919.19 C 2138.61 1916.69 2137.87 1914.67 2136.9 1912.17 C 2129.32 1916.11 2127.94 1916.7 2119.46 1917.17 C 2128.81 1911.1 2138.12 1904.96 2147.38 1898.76 z"/>
<path transform="translate(0,0)" fill="rgb(19,9,31)" d="M 1132.21 2410.62 C 1142.56 2399.55 1140.28 2379.95 1147.8 2365.88 C 1150.66 2368.75 1149.85 2373.77 1150.23 2379.12 C 1143.48 2428.95 1137.62 2475.83 1139.65 2526.42 C 1141.65 2576.28 1153.44 2624.23 1161.73 2673.13 C 1183.83 2803.46 1219.12 2928.52 1253.52 3056.08 C 1260.21 3080.87 1278.2 3133.93 1282.53 3160.86 C 1281.43 3162.05 1280.32 3163.24 1279.22 3164.42 C 1276.83 3163.95 1276.68 3163.54 1274.45 3162.29 C 1271.15 3148.83 1250.4 3077.78 1242.26 3069.4 C 1239.75 3064.31 1224.74 3006.27 1221.82 2996.06 C 1191.43 2886.06 1165.21 2774.94 1143.23 2662.95 C 1137.8 2635.4 1136.01 2601.17 1130.05 2575.02 C 1131.17 2566.25 1130.8 2565.72 1123.46 2562.49 C 1126.08 2559.82 1127.29 2558.43 1127.09 2554.16 C 1124.98 2507.37 1124.47 2457.04 1132.21 2410.62 z"/>
<path transform="translate(0,0)" fill="rgb(19,9,31)" d="M 2251.21 2073.21 C 2307.65 2199.4 2375.92 2492.28 2381.71 2627.23 C 2383.17 2655.38 2381.16 2683.61 2375.71 2711.27 L 2374.71 2701.51 C 2372.1 2705.73 2370.78 2706.11 2366.57 2708.61 L 2365.19 2709.41 C 2365.36 2699.6 2364.9 2692.75 2364.15 2683.11 C 2371.81 2593.98 2353.42 2502.06 2334.57 2415.22 C 2312.48 2309.39 2283.59 2205.09 2248.08 2102.98 C 2249.98 2102.1 2251.62 2100.62 2253.37 2099.3 C 2254.14 2090.83 2250.75 2083.58 2251.21 2073.21 z"/>
<path transform="translate(0,0)" fill="rgb(19,9,31)" d="M 1775.73 2968.28 C 1774.74 2935.63 1687.27 2836.91 1691.93 2820.76 C 1696.04 2827.35 1696.96 2827.75 1703.21 2832.83 L 1704.98 2834.24 C 1715.64 2847.69 1726.79 2866.08 1736.01 2880.8 C 1803.13 2988.03 1875.96 3091.93 1949.64 3194.74 C 1958.13 3206.58 1967.33 3218.62 1976.67 3229.76 C 2031.64 3241.78 2082.9 3251.37 2139.54 3246.61 C 2145.84 3246.09 2156.29 3244.42 2162.02 3244.42 C 2170.62 3244.88 2174.49 3245.26 2182.79 3243.38 L 2185.06 3249.06 C 2230.36 3222.87 2167.84 3193.13 2182.22 3169.86 C 2188.07 3193 2206.58 3212.44 2204.94 3234.98 C 2204.6 3239.68 2195.31 3248.68 2190.7 3250.11 C 2127.99 3269.59 2025.86 3258.92 1964.75 3238.16 C 1938.03 3206.7 1899.53 3150 1875.29 3115.45 C 1844.53 3071.62 1802.14 3013.69 1775.73 2968.28 z"/>
<path transform="translate(0,0)" fill="rgb(19,15,54)" d="M 1242.26 3069.4 C 1250.4 3077.78 1271.15 3148.83 1274.45 3162.29 C 1276.68 3163.54 1276.83 3163.95 1279.22 3164.42 C 1268.85 3173.67 1254.3 3181.31 1246.39 3188.49 C 1236.96 3194.91 1227.63 3201.05 1219.59 3209.23 L 1210.37 3216.48 C 1212.36 3211.88 1214.79 3209.22 1216.78 3203.91 C 1213.24 3202.21 1204.1 3206.03 1199.18 3207.48 C 1210.89 3193.54 1249.64 3167.69 1266.8 3155.58 C 1260.09 3127.16 1249.81 3098.15 1242.26 3069.4 z"/>
<path transform="translate(0,0)" fill="rgb(19,9,31)" d="M 1270.85 3243.99 C 1284.26 3242.52 1320.3 3242.62 1334.78 3242.72 C 1345.35 3256.05 1345.13 3247.43 1355.29 3254.57 C 1314.45 3257.68 1273.44 3257.8 1232.59 3254.95 C 1237.13 3251 1235.17 3253.4 1237.09 3246.3 C 1241.73 3244.53 1260.71 3245.06 1268.72 3244.22 L 1270.85 3243.99 z"/>
<path transform="translate(0,0)" fill="rgb(32,19,62)" d="M 1199.18 3207.48 C 1204.1 3206.03 1213.24 3202.21 1216.78 3203.91 C 1214.79 3209.22 1212.36 3211.88 1210.37 3216.48 C 1205.72 3222.79 1201.48 3227.13 1200.15 3234.71 C 1207.2 3244.81 1256.53 3241.91 1270.85 3243.99 L 1268.72 3244.22 C 1260.71 3245.06 1241.73 3244.53 1237.09 3246.3 C 1235.17 3253.4 1237.13 3251 1232.59 3254.95 C 1199.11 3252.81 1155.98 3245.54 1199.18 3207.48 z"/>
<path transform="translate(0,0)" fill="rgb(184,186,234)" d="M 1448.07 3232.43 L 1447.08 3226.79 C 1464.79 3202.46 1469.88 3113.91 1483.49 3093.7 C 1486.42 3098.44 1485.62 3102.42 1485.89 3108.67 C 1479.68 3144.56 1472.68 3182.28 1463.78 3217.65 C 1460.83 3229.39 1459.57 3230.05 1448.07 3232.43 z"/>
<path transform="translate(0,0)" fill="rgb(184,186,234)" d="M 1491.87 3080.27 L 1487.85 3079.47 C 1488.6 3057.9 1504.94 2979.02 1514.53 2962.65 L 1515.34 2976.27 C 1510.13 2997.93 1498.86 3065.28 1491.87 3080.27 z"/>
<path transform="translate(0,0)" fill="rgb(184,186,234)" d="M 1246.39 3188.49 L 1248.77 3191.81 C 1243.19 3201.19 1231.41 3212.85 1219.59 3209.23 C 1227.63 3201.05 1236.96 3194.91 1246.39 3188.49 z"/>
<path transform="translate(0,0)" fill="rgb(230,157,97)" d="M 2143.5 1687.06 C 2188.75 1684.15 2217.86 1689.76 2262.63 1694.67 C 2334.9 1702.37 2402.23 1695.05 2471.35 1670.3 C 2573.85 1633.59 2648.78 1569.5 2733.7 1500.21 C 2914.7 1352.52 3176.47 1306.43 3393.05 1398.94 C 3395.76 1400.1 3395.07 1401.89 3395.23 1404.48 C 3377.78 1438.23 3310.08 1472.34 3324.43 1516.34 C 3332.04 1539.68 3390.22 1623.83 3389.48 1639.55 C 3383.14 1645.44 3366.2 1639.37 3358.18 1636.76 C 3214.82 1590.18 3054.61 1583.9 2917.1 1652.68 C 2855.36 1683.55 2810.52 1723.07 2754.14 1760.54 C 2632.89 1841.62 2487.13 1877.83 2342.02 1862.91 L 2341.58 1860.16 C 2335.28 1858.19 2322.97 1856.69 2316.02 1855.63 C 2332.42 1855.55 2354.52 1856.04 2370.4 1854.38 L 2372.42 1854.15 C 2361.16 1852.76 2314.34 1851.21 2308.13 1849.04 C 2283.8 1840.57 2237.76 1812.71 2213.1 1799.06 C 2201.95 1795.43 2187.6 1789.56 2176.36 1785.34 C 2149.32 1777.64 2171.62 1761.32 2165.81 1738.93 C 2161.18 1721.07 2152.7 1713.16 2137.5 1703.36 L 2134.95 1702.02 C 2140.77 1698.83 2153.74 1698.71 2161.21 1698.07 C 2152.49 1693.95 2150.39 1693.44 2143.5 1687.06 z"/>
<path transform="translate(0,0)" fill="url(#Gradient1)" d="M 2213.1 1799.06 L 2212.89 1796.95 C 2207.26 1789.25 2186.38 1786.58 2174.98 1780.73 C 2173 1776.04 2172.3 1772.86 2171.07 1767.99 L 2169.48 1772.13 C 2168.66 1766.63 2167.97 1765.76 2170.28 1760.73 L 2174.93 1759.48 C 2172.59 1751.25 2169.24 1751.19 2172.29 1741.5 C 2174.13 1735.63 2202.34 1742.43 2205.35 1743.12 C 2292.63 1765.25 2369.16 1783.91 2459.51 1780.3 C 2646.44 1772.83 2767.22 1638.72 2934.03 1580.79 C 3022.2 1553.62 3122.47 1550.92 3213.66 1561.61 C 3252.21 1566.12 3299.12 1583.64 3337.79 1591.07 C 3340.93 1591.67 3340.93 1596.69 3349.58 1595.99 L 3349.76 1594.31 C 3342.67 1585.03 3334.92 1571.98 3333.94 1560.2 C 3348.03 1582.34 3359.81 1605.06 3373.27 1627.45 C 3199.72 1580.8 3042.76 1565.37 2878.87 1660.32 C 2836.02 1685.14 2809.61 1707.24 2770.07 1735.66 C 2691.48 1792.16 2601.37 1834.05 2504.73 1847.12 C 2477.06 1850.77 2449.21 1852.97 2421.3 1853.72 C 2410.52 1853.93 2381.27 1853.23 2372.42 1854.15 C 2361.16 1852.76 2314.34 1851.21 2308.13 1849.04 C 2283.8 1840.57 2237.76 1812.71 2213.1 1799.06 z"/>
<path transform="translate(0,0)" fill="rgb(37,6,4)" d="M 2143.5 1687.06 C 2188.75 1684.15 2217.86 1689.76 2262.63 1694.67 C 2334.9 1702.37 2402.23 1695.05 2471.35 1670.3 C 2573.85 1633.59 2648.78 1569.5 2733.7 1500.21 C 2914.7 1352.52 3176.47 1306.43 3393.05 1398.94 C 3395.76 1400.1 3395.07 1401.89 3395.23 1404.48 C 3377.78 1438.23 3310.08 1472.34 3324.43 1516.34 C 3332.04 1539.68 3390.22 1623.83 3389.48 1639.55 C 3383.14 1645.44 3366.2 1639.37 3358.18 1636.76 C 3214.82 1590.18 3054.61 1583.9 2917.1 1652.68 C 2855.36 1683.55 2810.52 1723.07 2754.14 1760.54 C 2632.89 1841.62 2487.13 1877.83 2342.02 1862.91 L 2341.58 1860.16 C 2335.28 1858.19 2322.97 1856.69 2316.02 1855.63 C 2332.42 1855.55 2354.52 1856.04 2370.4 1854.38 L 2372.42 1854.15 C 2381.27 1853.23 2410.52 1853.93 2421.3 1853.72 C 2449.21 1852.97 2477.06 1850.77 2504.73 1847.12 C 2601.37 1834.05 2691.48 1792.16 2770.07 1735.66 C 2809.61 1707.24 2836.02 1685.14 2878.87 1660.32 C 3042.76 1565.37 3199.72 1580.8 3373.27 1627.45 C 3359.81 1605.06 3348.03 1582.34 3333.94 1560.2 C 3299.69 1496.83 3293.82 1496.99 3346.92 1439.59 C 3356.45 1429.29 3367.83 1416.79 3376.96 1405.97 C 3218.75 1344.75 3042.61 1349.47 2887.9 1419.08 C 2683.17 1510.82 2603.55 1687.77 2350.51 1707.61 C 2284.25 1712.8 2225.87 1697.01 2161.21 1698.07 C 2152.49 1693.95 2150.39 1693.44 2143.5 1687.06 z"/>
<path transform="translate(0,0)" fill="rgb(230,157,97)" d="M 2350.09 1878.83 C 2449.13 1928.76 2545.43 1934.93 2651.62 1899.5 C 2721.14 1876.31 2782.78 1839.27 2850.24 1811.48 C 2991.53 1751.13 3146.16 1726.58 3296.85 1765.27 C 3326.67 1772.93 3424.83 1801.51 3442 1823.33 C 3441.76 1839.37 3359.79 1883.65 3360.01 1920.01 C 3360.19 1950.84 3414.92 2030.15 3406.32 2048.47 C 3398.58 2048.89 3388.62 2044.31 3381.54 2040.85 C 3338.68 2019.84 3296.42 2004.73 3250.48 1991.96 C 3197.72 1977.38 3143.24 1969.9 3088.5 1969.72 C 2896.2 1970.24 2753.72 2094.22 2563.82 2100.47 C 2434.36 2104.73 2318.04 2060.61 2215.78 1982.57 C 2221.03 1995.13 2249.53 2062.31 2251.21 2073.21 C 2250.75 2083.58 2254.14 2090.83 2253.37 2099.3 C 2251.62 2100.62 2249.98 2102.1 2248.08 2102.98 C 2233.74 2063.36 2219.35 2021.11 2201.32 1983.24 L 2206.95 1982.89 L 2203.98 1977.57 L 2206.34 1975.38 C 2209.8 1975.35 2211.25 1975.69 2214.45 1974.76 C 2210.24 1970.49 2206.74 1966.75 2202.75 1962.26 L 2204.21 1959.14 C 2194.22 1938.95 2172.65 1907.92 2159.43 1889.52 L 2162.24 1886.13 C 2172.31 1872.64 2174.1 1867.75 2177.28 1851.87 C 2176.77 1846.78 2175.87 1836.59 2174.32 1831.93 C 2171.12 1822.33 2154.41 1806.17 2155.43 1796.48 L 2158.38 1794.27 C 2167.7 1793.16 2176.12 1797.34 2185.26 1800.62 C 2179.2 1793.08 2172.84 1791.62 2163.84 1787.8 L 2164.77 1786.47 L 2176.36 1785.34 C 2187.6 1789.56 2201.95 1795.43 2213.1 1799.06 C 2237.76 1812.71 2283.8 1840.57 2308.13 1849.04 C 2314.34 1851.21 2361.16 1852.76 2372.42 1854.15 L 2370.4 1854.38 C 2354.52 1856.04 2332.42 1855.55 2316.02 1855.63 C 2322.97 1856.69 2335.28 1858.19 2341.58 1860.16 L 2342.02 1862.91 C 2335.6 1862.71 2329.55 1862.55 2323.15 1862.03 C 2327.82 1864.89 2346.91 1876.13 2350.09 1878.83 z"/>
<path transform="translate(0,0)" fill="rgb(214,130,75)" d="M 2350.09 1878.83 C 2449.13 1928.76 2545.43 1934.93 2651.62 1899.5 C 2721.14 1876.31 2782.78 1839.27 2850.24 1811.48 C 2991.53 1751.13 3146.16 1726.58 3296.85 1765.27 C 3326.67 1772.93 3424.83 1801.51 3442 1823.33 C 3441.76 1839.37 3359.79 1883.65 3360.01 1920.01 C 3360.19 1950.84 3414.92 2030.15 3406.32 2048.47 C 3398.58 2048.89 3388.62 2044.31 3381.54 2040.85 C 3338.68 2019.84 3296.42 2004.73 3250.48 1991.96 C 3197.72 1977.38 3143.24 1969.9 3088.5 1969.72 C 2896.2 1970.24 2753.72 2094.22 2563.82 2100.47 C 2434.36 2104.73 2318.04 2060.61 2215.78 1982.57 C 2221.03 1995.13 2249.53 2062.31 2251.21 2073.21 C 2250.75 2083.58 2254.14 2090.83 2253.37 2099.3 C 2251.62 2100.62 2249.98 2102.1 2248.08 2102.98 C 2233.74 2063.36 2219.35 2021.11 2201.32 1983.24 L 2206.95 1982.89 L 2203.98 1977.57 L 2206.34 1975.38 C 2209.8 1975.35 2211.25 1975.69 2214.45 1974.76 C 2210.24 1970.49 2206.74 1966.75 2202.75 1962.26 L 2204.21 1959.14 C 2194.22 1938.95 2172.65 1907.92 2159.43 1889.52 L 2162.24 1886.13 C 2172.31 1872.64 2174.1 1867.75 2177.28 1851.87 L 2179.27 1862.78 L 2182 1861.29 L 2180.64 1862.79 L 2182.37 1863.06 C 2181.97 1859.76 2182.46 1861.52 2180.44 1857.93 C 2183.53 1851.98 2185.76 1848.45 2186.24 1841.62 C 2196.96 1842.04 2307.62 1932.24 2327.07 1943.44 C 2384.81 1976.68 2434.78 2000.94 2502.87 2008.02 C 2553.28 2013.27 2605.61 2015.47 2655.46 2007.27 C 2718.39 1996.93 2783.86 1975.31 2843.46 1953.22 C 2945.99 1915.21 3041.19 1900.77 3150.1 1914.9 C 3167.71 1917.19 3192.7 1920.14 3209.35 1924.9 C 3222.34 1928.62 3239.36 1935.67 3253.29 1939.4 C 3270.03 1943.88 3287.01 1950.03 3302.16 1956.46 C 3310.7 1960.09 3364.08 1985.21 3366.37 1985.7 C 3367.18 1976.93 3361.98 1976.52 3361.14 1964.77 C 3340.66 1914.28 3341.88 1900.41 3385.02 1861.71 C 3398.11 1849.97 3412.85 1836.87 3425.56 1824.62 C 3252.56 1733.01 3038.67 1742.51 2862.47 1818.45 C 2737.81 1872.18 2620.05 1950.12 2477.65 1931.04 C 2440.14 1926.02 2390.03 1915.19 2357.16 1895.58 C 2354.27 1885.65 2348.85 1885.86 2350.09 1878.83 z"/>
<path transform="translate(0,0)" fill="rgb(37,6,4)" d="M 2350.09 1878.83 C 2449.13 1928.76 2545.43 1934.93 2651.62 1899.5 C 2721.14 1876.31 2782.78 1839.27 2850.24 1811.48 C 2991.53 1751.13 3146.16 1726.58 3296.85 1765.27 C 3326.67 1772.93 3424.83 1801.51 3442 1823.33 C 3441.76 1839.37 3359.79 1883.65 3360.01 1920.01 C 3360.19 1950.84 3414.92 2030.15 3406.32 2048.47 C 3398.58 2048.89 3388.62 2044.31 3381.54 2040.85 C 3338.68 2019.84 3296.42 2004.73 3250.48 1991.96 C 3197.72 1977.38 3143.24 1969.9 3088.5 1969.72 C 2896.2 1970.24 2753.72 2094.22 2563.82 2100.47 C 2434.36 2104.73 2318.04 2060.61 2215.78 1982.57 C 2221.03 1995.13 2249.53 2062.31 2251.21 2073.21 C 2250.75 2083.58 2254.14 2090.83 2253.37 2099.3 C 2251.62 2100.62 2249.98 2102.1 2248.08 2102.98 C 2233.74 2063.36 2219.35 2021.11 2201.32 1983.24 L 2206.95 1982.89 L 2203.98 1977.57 L 2206.34 1975.38 C 2209.8 1975.35 2211.25 1975.69 2214.45 1974.76 C 2210.24 1970.49 2206.74 1966.75 2202.75 1962.26 L 2204.21 1959.14 C 2208.2 1962.72 2212.56 1966.89 2216.83 1969.99 C 2227.59 1980.38 2255.56 1996.93 2269.33 2005.77 C 2356.68 2061.84 2451.26 2091.46 2556.1 2089.42 C 2567.18 2089.18 2578.25 2088.53 2589.29 2087.47 C 2676.94 2077.59 2750.19 2052.21 2830.69 2018.34 C 2979.38 1955.78 3114.72 1939.2 3270.34 1986.41 C 3312.38 1999.16 3351.38 2015.62 3392.89 2030.95 C 3382.73 2008.62 3372.95 1986.29 3361.14 1964.77 C 3340.66 1914.28 3341.88 1900.41 3385.02 1861.71 C 3398.11 1849.97 3412.85 1836.87 3425.56 1824.62 C 3252.56 1733.01 3038.67 1742.51 2862.47 1818.45 C 2737.81 1872.18 2620.05 1950.12 2477.65 1931.04 C 2440.14 1926.02 2390.03 1915.19 2357.16 1895.58 C 2354.27 1885.65 2348.85 1885.86 2350.09 1878.83 z"/>
<path transform="translate(0,0)" fill="rgb(220,159,123)" d="M 2162.24 1886.13 C 2172.31 1872.64 2174.1 1867.75 2177.28 1851.87 L 2179.27 1862.78 C 2176.24 1871.92 2173.6 1875.19 2174.79 1884.27 C 2178.62 1889.89 2186.16 1897.41 2188.49 1902.13 C 2207.23 1940.22 2222.76 1962.78 2260.56 1984.01 C 2284.24 1997.31 2309.85 2016.78 2336.03 2027.39 C 2346.88 2032.62 2368.73 2038.93 2375.38 2048.24 C 2365.94 2042.55 2353.66 2052.27 2349.99 2037.92 C 2344.59 2035.59 2344.9 2035.87 2338.96 2036.4 L 2339.42 2036.1 L 2339.33 2038.18 C 2364.34 2057.76 2442.47 2074.68 2475.17 2079.71 C 2511.01 2085.22 2554.7 2082.89 2589.29 2087.47 C 2578.25 2088.53 2567.18 2089.18 2556.1 2089.42 C 2451.26 2091.46 2356.68 2061.84 2269.33 2005.77 C 2255.56 1996.93 2227.59 1980.38 2216.83 1969.99 C 2212.56 1966.89 2208.2 1962.72 2204.21 1959.14 C 2194.22 1938.95 2172.65 1907.92 2159.43 1889.52 L 2162.24 1886.13 z"/>
<path transform="translate(0,0)" fill="rgb(214,130,75)" d="M 2162.24 1886.13 C 2165.75 1891.27 2166.53 1891.7 2171.12 1895.73 C 2185.79 1908.58 2200.82 1929.68 2208.41 1947.47 L 2207.66 1950 L 2205.14 1950.22 C 2209.12 1955.67 2216.94 1964.12 2216.83 1969.99 C 2212.56 1966.89 2208.2 1962.72 2204.21 1959.14 C 2194.22 1938.95 2172.65 1907.92 2159.43 1889.52 L 2162.24 1886.13 z"/>
<path transform="translate(0,0)" fill="rgb(47,16,18)" d="M 2176.36 1785.34 C 2187.6 1789.56 2201.95 1795.43 2213.1 1799.06 C 2237.76 1812.71 2283.8 1840.57 2308.13 1849.04 C 2314.34 1851.21 2361.16 1852.76 2372.42 1854.15 L 2370.4 1854.38 C 2354.52 1856.04 2332.42 1855.55 2316.02 1855.63 C 2322.97 1856.69 2335.28 1858.19 2341.58 1860.16 L 2342.02 1862.91 C 2335.6 1862.71 2329.55 1862.55 2323.15 1862.03 C 2327.82 1864.89 2346.91 1876.13 2350.09 1878.83 C 2348.85 1885.86 2354.27 1885.65 2357.16 1895.58 C 2334.19 1886.65 2299.09 1861.1 2276.44 1847.09 C 2243.9 1826.95 2220.27 1815.21 2185.26 1800.62 C 2179.2 1793.08 2172.84 1791.62 2163.84 1787.8 L 2164.77 1786.47 L 2176.36 1785.34 z"/>
<path transform="translate(0,0)" fill="rgb(37,6,4)" d="M 1180.54 1849.43 C 1173.64 1837.31 1164.63 1826.89 1158.08 1814.05 C 1136.57 1771.91 1167.42 1740.57 1203.57 1722.62 C 1206.8 1727.14 1208.61 1729.89 1211.43 1734.67 C 1180.14 1749.49 1155.39 1772.35 1171.55 1809.01 L 1172.47 1810.98 C 1181.3 1829.46 1199.7 1840.79 1191.09 1860.18 C 1181.21 1877.34 1172.6 1892.59 1169.44 1912.49 C 1166.74 1916.16 1168.46 1914.92 1164.4 1916.39 L 1162.59 1912.24 C 1158.91 1915.1 1160.21 1913.37 1158.47 1917.27 L 1158.29 1916.95 C 1158.55 1909.32 1158.2 1903.5 1157.76 1895.85 C 1161.63 1878.06 1170.82 1864.38 1180.54 1849.43 z"/>
<path transform="translate(0,0)" fill="rgb(192,191,192)" fill-opacity="0.0235294" d="M 2964.62 1671 C 2963.56 1679.49 2961.72 1681.18 2965.14 1686.8 L 2966.77 1686.78 C 2976.38 1686.73 2984.02 1687.54 2988.86 1697.07 L 2987.26 1698.98 C 2981.52 1699.05 2972.39 1698.02 2968.83 1700.9 L 2974.5 1705.9 C 2968.26 1710.23 2964.09 1707.82 2957.15 1705.71 L 2954.97 1707.44 C 2954.8 1714.2 2954.76 1714.73 2956 1721.31 C 2948.84 1721.09 2936 1711.68 2930.2 1724.38 C 2936.96 1726.7 2948.85 1725.16 2956.32 1727.09 C 2956.43 1727.12 2959.49 1732 2960.4 1732.91 C 2879.75 1754.98 2842.18 1771.48 2765.84 1807 C 2770.46 1802.07 2787.21 1786.5 2789.06 1782.8 C 2851.02 1735.61 2890.94 1701.96 2964.62 1671 z"/>
</svg>